<?xml version="1.0" encoding="UTF-8" standalone="no"?>
<!DOCTYPE svg PUBLIC "-//W3C//DTD SVG 1.1//EN"
 "http://www.w3.org/Graphics/SVG/1.1/DTD/svg11.dtd">
<!-- Generated by graphviz version 2.38.0 (20140413.2041)
 -->
<!-- Title: abc Pages: 1 -->
<svg width="7605pt" height="559pt"
 viewBox="0.00 0.00 7605.00 559.14" xmlns="http://www.w3.org/2000/svg" xmlns:xlink="http://www.w3.org/1999/xlink">
<g id="graph0" class="graph" transform="scale(1 1) rotate(0) translate(4 555.139)">
<title>abc</title>
<polygon fill="white" stroke="none" points="-4,4 -4,-555.139 7601,-555.139 7601,4 -4,4"/>
<g id="clust1" class="cluster"><title>cluster_43417</title>
<polygon fill="none" stroke="blue" points="8,-450.399 8,-543.139 242,-543.139 242,-450.399 8,-450.399"/>
<text text-anchor="middle" x="125" y="-527.939" font-family="Times,serif" font-size="14.00">process_id:43417</text>
</g>
<g id="clust2" class="cluster"><title>cluster_43421</title>
<polygon fill="none" stroke="blue" points="250,-450.399 250,-543.139 1002,-543.139 1002,-450.399 250,-450.399"/>
<text text-anchor="middle" x="626" y="-527.939" font-family="Times,serif" font-size="14.00">process_id:43421</text>
</g>
<g id="clust3" class="cluster"><title>cluster_43431</title>
<polygon fill="none" stroke="blue" points="1010,-450.399 1010,-543.139 1308,-543.139 1308,-450.399 1010,-450.399"/>
<text text-anchor="middle" x="1159" y="-527.939" font-family="Times,serif" font-size="14.00">process_id:43431</text>
</g>
<g id="clust4" class="cluster"><title>cluster_43451</title>
<polygon fill="none" stroke="blue" points="1316,-450.399 1316,-543.139 1576,-543.139 1576,-450.399 1316,-450.399"/>
<text text-anchor="middle" x="1446" y="-527.939" font-family="Times,serif" font-size="14.00">process_id:43451</text>
</g>
<g id="clust5" class="cluster"><title>cluster_43454</title>
<polygon fill="none" stroke="blue" points="1584,-303.446 1584,-543.139 2632,-543.139 2632,-303.446 1584,-303.446"/>
<text text-anchor="middle" x="2108" y="-527.939" font-family="Times,serif" font-size="14.00">process_id:43454</text>
</g>
<g id="clust6" class="cluster"><title>cluster_43455</title>
<polygon fill="none" stroke="blue" points="2640,-450.399 2640,-543.139 3397,-543.139 3397,-450.399 2640,-450.399"/>
<text text-anchor="middle" x="3018.5" y="-527.939" font-family="Times,serif" font-size="14.00">process_id:43455</text>
</g>
<g id="clust7" class="cluster"><title>cluster_43457</title>
<polygon fill="none" stroke="blue" points="3405,-450.399 3405,-543.139 3699,-543.139 3699,-450.399 3405,-450.399"/>
<text text-anchor="middle" x="3552" y="-527.939" font-family="Times,serif" font-size="14.00">process_id:43457</text>
</g>
<g id="clust8" class="cluster"><title>cluster_43488</title>
<polygon fill="none" stroke="blue" points="3707,-450.399 3707,-543.139 4005,-543.139 4005,-450.399 3707,-450.399"/>
<text text-anchor="middle" x="3856" y="-527.939" font-family="Times,serif" font-size="14.00">process_id:43488</text>
</g>
<g id="clust9" class="cluster"><title>cluster_43499</title>
<polygon fill="none" stroke="blue" points="4013,-450.399 4013,-543.139 4735,-543.139 4735,-450.399 4013,-450.399"/>
<text text-anchor="middle" x="4374" y="-527.939" font-family="Times,serif" font-size="14.00">process_id:43499</text>
</g>
<g id="clust10" class="cluster"><title>cluster_43502</title>
<polygon fill="none" stroke="blue" points="4743,-450.399 4743,-543.139 5997,-543.139 5997,-450.399 4743,-450.399"/>
<text text-anchor="middle" x="5370" y="-527.939" font-family="Times,serif" font-size="14.00">process_id:43502</text>
</g>
<g id="clust11" class="cluster"><title>cluster_43511</title>
<polygon fill="none" stroke="blue" points="6005,-450.399 6005,-543.139 6795,-543.139 6795,-450.399 6005,-450.399"/>
<text text-anchor="middle" x="6400" y="-527.939" font-family="Times,serif" font-size="14.00">process_id:43511</text>
</g>
<g id="clust12" class="cluster"><title>cluster_43556</title>
<polygon fill="none" stroke="blue" points="6803,-450.399 6803,-543.139 7589,-543.139 7589,-450.399 6803,-450.399"/>
<text text-anchor="middle" x="7196" y="-527.939" font-family="Times,serif" font-size="14.00">process_id:43556</text>
</g>
<g id="clust13" class="cluster"><title>cluster_43725</title>
<polygon fill="none" stroke="blue" points="2640,-303.446 2640,-417.399 2890,-417.399 2890,-303.446 2640,-303.446"/>
<text text-anchor="middle" x="2765" y="-402.199" font-family="Times,serif" font-size="14.00">process_id:43725</text>
</g>
<g id="clust14" class="cluster"><title>cluster_43726</title>
<polygon fill="none" stroke="blue" points="2300,-8 2300,-270.446 3230,-270.446 3230,-8 2300,-8"/>
<text text-anchor="middle" x="2765" y="-255.246" font-family="Times,serif" font-size="14.00">process_id:43726</text>
</g>
<!-- 43417 -->
<g id="node1" class="node"><title>43417</title>
<ellipse fill="#00cd00" stroke="#00cd00" cx="125" cy="-485.269" rx="108.789" ry="26.7407"/>
<text text-anchor="middle" x="125" y="-489.069" font-family="Times,serif" font-size="14.00">thread_id:43417</text>
<text text-anchor="middle" x="125" y="-474.069" font-family="Times,serif" font-size="14.00">thread_name_list:&quot;Xorg&quot;</text>
</g>
<!-- 43421 -->
<g id="node2" class="node"><title>43421</title>
<ellipse fill="#00cd00" stroke="#00cd00" cx="870" cy="-485.269" rx="124.402" ry="26.7407"/>
<text text-anchor="middle" x="870" y="-489.069" font-family="Times,serif" font-size="14.00">thread_id:43421</text>
<text text-anchor="middle" x="870" y="-474.069" font-family="Times,serif" font-size="14.00">thread_name_list:&quot;lxsession&quot;</text>
</g>
<!-- 43432 -->
<g id="node3" class="node"><title>43432</title>
<ellipse fill="none" stroke="black" cx="614" cy="-485.269" rx="113.689" ry="26.7407"/>
<text text-anchor="middle" x="614" y="-489.069" font-family="Times,serif" font-size="14.00">thread_id:43432</text>
<text text-anchor="middle" x="614" y="-474.069" font-family="Times,serif" font-size="14.00">thread_name_list:&quot;gmain&quot;</text>
</g>
<!-- 43433 -->
<g id="node4" class="node"><title>43433</title>
<ellipse fill="none" stroke="black" cx="370" cy="-485.269" rx="111.946" ry="26.7407"/>
<text text-anchor="middle" x="370" y="-489.069" font-family="Times,serif" font-size="14.00">thread_id:43433</text>
<text text-anchor="middle" x="370" y="-474.069" font-family="Times,serif" font-size="14.00">thread_name_list:&quot;gdbus&quot;</text>
</g>
<!-- 43431 -->
<g id="node5" class="node"><title>43431</title>
<ellipse fill="#00cd00" stroke="#00cd00" cx="1159" cy="-485.269" rx="141.343" ry="26.7407"/>
<text text-anchor="middle" x="1159" y="-489.069" font-family="Times,serif" font-size="14.00">thread_id:43431</text>
<text text-anchor="middle" x="1159" y="-474.069" font-family="Times,serif" font-size="14.00">thread_name_list:&quot;dbus&#45;daemon&quot;</text>
</g>
<!-- 43451 -->
<g id="node6" class="node"><title>43451</title>
<ellipse fill="#00cd00" stroke="#00cd00" cx="1446" cy="-485.269" rx="122.159" ry="26.7407"/>
<text text-anchor="middle" x="1446" y="-489.069" font-family="Times,serif" font-size="14.00">thread_id:43451</text>
<text text-anchor="middle" x="1446" y="-474.069" font-family="Times,serif" font-size="14.00">thread_name_list:&quot;openbox&quot;</text>
</g>
<!-- 43454 -->
<g id="node7" class="node"><title>43454</title>
<ellipse fill="#00cd00" stroke="#00cd00" cx="2507" cy="-485.269" rx="117.26" ry="26.7407"/>
<text text-anchor="middle" x="2507" y="-489.069" font-family="Times,serif" font-size="14.00">thread_id:43454</text>
<text text-anchor="middle" x="2507" y="-474.069" font-family="Times,serif" font-size="14.00">thread_name_list:&quot;lxpanel&quot;</text>
</g>
<!-- 43731 -->
<g id="node11" class="node"><title>43731</title>
<ellipse fill="none" stroke="black" cx="2478" cy="-348.922" rx="145.828" ry="37.4533"/>
<text text-anchor="middle" x="2478" y="-360.222" font-family="Times,serif" font-size="14.00">thread_id:43731</text>
<text text-anchor="middle" x="2478" y="-345.222" font-family="Times,serif" font-size="14.00">thread_name_list:&quot;lxpanel&quot;,&quot;pool&quot;</text>
<text text-anchor="middle" x="2478" y="-330.222" font-family="Times,serif" font-size="14.00">exit_code:5765:&quot;0&quot;</text>
</g>
<!-- 43454&#45;&gt;43731 -->
<g id="edge2" class="edge"><title>43454&#45;&gt;43731</title>
<path fill="none" stroke="black" d="M2501.41,-458.366C2497.62,-440.805 2492.5,-417.099 2488.02,-396.331"/>
<polygon fill="black" stroke="black" points="2491.41,-395.448 2485.88,-386.411 2484.57,-396.925 2491.41,-395.448"/>
<text text-anchor="middle" x="2510" y="-429.199" font-family="Times,serif" font-size="14.00">5329</text>
</g>
<!-- 43725 -->
<g id="node32" class="node"><title>43725</title>
<ellipse fill="#c4c4c4" stroke="#c4c4c4" cx="2765" cy="-348.922" rx="117.26" ry="37.4533"/>
<text text-anchor="middle" x="2765" y="-360.222" font-family="Times,serif" font-size="14.00">thread_id:43725</text>
<text text-anchor="middle" x="2765" y="-345.222" font-family="Times,serif" font-size="14.00">thread_name_list:&quot;lxpanel&quot;</text>
<text text-anchor="middle" x="2765" y="-330.222" font-family="Times,serif" font-size="14.00">exit_code:5183:&quot;0&quot;</text>
</g>
<!-- 43454&#45;&gt;43725 -->
<g id="edge1" class="edge"><title>43454&#45;&gt;43725</title>
<path fill="none" stroke="black" d="M2552.99,-460.48C2577.62,-447.726 2608.48,-431.73 2636,-417.399 2655.55,-407.221 2676.74,-396.149 2696.2,-385.972"/>
<polygon fill="black" stroke="black" points="2698.06,-388.948 2705.3,-381.211 2694.81,-382.746 2698.06,-388.948"/>
<text text-anchor="middle" x="2632" y="-429.199" font-family="Times,serif" font-size="14.00">5143</text>
</g>
<!-- 43475 -->
<g id="node8" class="node"><title>43475</title>
<ellipse fill="none" stroke="black" cx="2258" cy="-485.269" rx="113.689" ry="26.7407"/>
<text text-anchor="middle" x="2258" y="-489.069" font-family="Times,serif" font-size="14.00">thread_id:43475</text>
<text text-anchor="middle" x="2258" y="-474.069" font-family="Times,serif" font-size="14.00">thread_name_list:&quot;gmain&quot;</text>
</g>
<!-- 43476 -->
<g id="node9" class="node"><title>43476</title>
<ellipse fill="none" stroke="black" cx="2014" cy="-485.269" rx="111.946" ry="26.7407"/>
<text text-anchor="middle" x="2014" y="-489.069" font-family="Times,serif" font-size="14.00">thread_id:43476</text>
<text text-anchor="middle" x="2014" y="-474.069" font-family="Times,serif" font-size="14.00">thread_name_list:&quot;gdbus&quot;</text>
</g>
<!-- 43736 -->
<g id="node12" class="node"><title>43736</title>
<ellipse fill="none" stroke="black" cx="2014" cy="-348.922" rx="140.014" ry="26.7407"/>
<text text-anchor="middle" x="2014" y="-352.722" font-family="Times,serif" font-size="14.00">thread_id:43736</text>
<text text-anchor="middle" x="2014" y="-337.722" font-family="Times,serif" font-size="14.00">thread_name_list:&quot;gdbus&quot;,&quot;pool&quot;</text>
</g>
<!-- 43476&#45;&gt;43736 -->
<g id="edge3" class="edge"><title>43476&#45;&gt;43736</title>
<path fill="none" stroke="black" d="M2014,-458.366C2014,-437.96 2014,-409.259 2014,-386.509"/>
<polygon fill="black" stroke="black" points="2017.5,-386.205 2014,-376.205 2010.5,-386.205 2017.5,-386.205"/>
<text text-anchor="middle" x="2028" y="-429.199" font-family="Times,serif" font-size="14.00">5385</text>
</g>
<!-- 43557 -->
<g id="node10" class="node"><title>43557</title>
<ellipse fill="none" stroke="black" cx="1738" cy="-485.269" rx="146.242" ry="26.7407"/>
<text text-anchor="middle" x="1738" y="-489.069" font-family="Times,serif" font-size="14.00">thread_id:43557</text>
<text text-anchor="middle" x="1738" y="-474.069" font-family="Times,serif" font-size="14.00">thread_name_list:&quot;menu&#45;cache&#45;io&quot;</text>
</g>
<!-- 43455 -->
<g id="node13" class="node"><title>43455</title>
<ellipse fill="#00cd00" stroke="#00cd00" cx="3262" cy="-485.269" rx="126.644" ry="26.7407"/>
<text text-anchor="middle" x="3262" y="-489.069" font-family="Times,serif" font-size="14.00">thread_id:43455</text>
<text text-anchor="middle" x="3262" y="-474.069" font-family="Times,serif" font-size="14.00">thread_name_list:&quot;pcmanfm&quot;</text>
</g>
<!-- 43459 -->
<g id="node14" class="node"><title>43459</title>
<ellipse fill="none" stroke="black" cx="3004" cy="-485.269" rx="113.689" ry="26.7407"/>
<text text-anchor="middle" x="3004" y="-489.069" font-family="Times,serif" font-size="14.00">thread_id:43459</text>
<text text-anchor="middle" x="3004" y="-474.069" font-family="Times,serif" font-size="14.00">thread_name_list:&quot;gmain&quot;</text>
</g>
<!-- 43460 -->
<g id="node15" class="node"><title>43460</title>
<ellipse fill="none" stroke="black" cx="2760" cy="-485.269" rx="111.946" ry="26.7407"/>
<text text-anchor="middle" x="2760" y="-489.069" font-family="Times,serif" font-size="14.00">thread_id:43460</text>
<text text-anchor="middle" x="2760" y="-474.069" font-family="Times,serif" font-size="14.00">thread_name_list:&quot;gdbus&quot;</text>
</g>
<!-- 43457 -->
<g id="node16" class="node"><title>43457</title>
<ellipse fill="#00cd00" stroke="#00cd00" cx="3552" cy="-485.269" rx="138.686" ry="26.7407"/>
<text text-anchor="middle" x="3552" y="-489.069" font-family="Times,serif" font-size="14.00">thread_id:43457</text>
<text text-anchor="middle" x="3552" y="-474.069" font-family="Times,serif" font-size="14.00">thread_name_list:&quot;xscreensaver&quot;</text>
</g>
<!-- 43488 -->
<g id="node17" class="node"><title>43488</title>
<ellipse fill="#00cd00" stroke="#00cd00" cx="3856" cy="-485.269" rx="141.343" ry="26.7407"/>
<text text-anchor="middle" x="3856" y="-489.069" font-family="Times,serif" font-size="14.00">thread_id:43488</text>
<text text-anchor="middle" x="3856" y="-474.069" font-family="Times,serif" font-size="14.00">thread_name_list:&quot;dbus&#45;daemon&quot;</text>
</g>
<!-- 43499 -->
<g id="node18" class="node"><title>43499</title>
<ellipse fill="#00cd00" stroke="#00cd00" cx="4618" cy="-485.269" rx="108.789" ry="26.7407"/>
<text text-anchor="middle" x="4618" y="-489.069" font-family="Times,serif" font-size="14.00">thread_id:43499</text>
<text text-anchor="middle" x="4618" y="-474.069" font-family="Times,serif" font-size="14.00">thread_name_list:&quot;clipit&quot;</text>
</g>
<!-- 43513 -->
<g id="node19" class="node"><title>43513</title>
<ellipse fill="none" stroke="black" cx="4377" cy="-485.269" rx="113.689" ry="26.7407"/>
<text text-anchor="middle" x="4377" y="-489.069" font-family="Times,serif" font-size="14.00">thread_id:43513</text>
<text text-anchor="middle" x="4377" y="-474.069" font-family="Times,serif" font-size="14.00">thread_name_list:&quot;gmain&quot;</text>
</g>
<!-- 43515 -->
<g id="node20" class="node"><title>43515</title>
<ellipse fill="none" stroke="black" cx="4133" cy="-485.269" rx="111.946" ry="26.7407"/>
<text text-anchor="middle" x="4133" y="-489.069" font-family="Times,serif" font-size="14.00">thread_id:43515</text>
<text text-anchor="middle" x="4133" y="-474.069" font-family="Times,serif" font-size="14.00">thread_name_list:&quot;gdbus&quot;</text>
</g>
<!-- 43502 -->
<g id="node21" class="node"><title>43502</title>
<ellipse fill="#00cd00" stroke="#00cd00" cx="5844" cy="-485.269" rx="144.914" ry="26.7407"/>
<text text-anchor="middle" x="5844" y="-489.069" font-family="Times,serif" font-size="14.00">thread_id:43502</text>
<text text-anchor="middle" x="5844" y="-474.069" font-family="Times,serif" font-size="14.00">thread_name_list:&quot;zeitgeist&#45;datah&quot;</text>
</g>
<!-- 43526 -->
<g id="node22" class="node"><title>43526</title>
<ellipse fill="none" stroke="black" cx="5567" cy="-485.269" rx="113.689" ry="26.7407"/>
<text text-anchor="middle" x="5567" y="-489.069" font-family="Times,serif" font-size="14.00">thread_id:43526</text>
<text text-anchor="middle" x="5567" y="-474.069" font-family="Times,serif" font-size="14.00">thread_name_list:&quot;gmain&quot;</text>
</g>
<!-- 43528 -->
<g id="node23" class="node"><title>43528</title>
<ellipse fill="none" stroke="black" cx="5329" cy="-485.269" rx="106.132" ry="26.7407"/>
<text text-anchor="middle" x="5329" y="-489.069" font-family="Times,serif" font-size="14.00">thread_id:43528</text>
<text text-anchor="middle" x="5329" y="-474.069" font-family="Times,serif" font-size="14.00">thread_name_list:&quot;pool&quot;</text>
</g>
<!-- 43530 -->
<g id="node24" class="node"><title>43530</title>
<ellipse fill="none" stroke="black" cx="5093" cy="-485.269" rx="111.946" ry="26.7407"/>
<text text-anchor="middle" x="5093" y="-489.069" font-family="Times,serif" font-size="14.00">thread_id:43530</text>
<text text-anchor="middle" x="5093" y="-474.069" font-family="Times,serif" font-size="14.00">thread_name_list:&quot;gdbus&quot;</text>
</g>
<!-- 43581 -->
<g id="node25" class="node"><title>43581</title>
<ellipse fill="none" stroke="black" cx="4857" cy="-485.269" rx="106.132" ry="26.7407"/>
<text text-anchor="middle" x="4857" y="-489.069" font-family="Times,serif" font-size="14.00">thread_id:43581</text>
<text text-anchor="middle" x="4857" y="-474.069" font-family="Times,serif" font-size="14.00">thread_name_list:&quot;pool&quot;</text>
</g>
<!-- 43511 -->
<g id="node26" class="node"><title>43511</title>
<ellipse fill="#00cd00" stroke="#00cd00" cx="6644" cy="-485.269" rx="142.671" ry="26.7407"/>
<text text-anchor="middle" x="6644" y="-489.069" font-family="Times,serif" font-size="14.00">thread_id:43511</text>
<text text-anchor="middle" x="6644" y="-474.069" font-family="Times,serif" font-size="14.00">thread_name_list:&quot;at&#45;spi2&#45;registr&quot;</text>
</g>
<!-- 43538 -->
<g id="node27" class="node"><title>43538</title>
<ellipse fill="none" stroke="black" cx="6369" cy="-485.269" rx="113.689" ry="26.7407"/>
<text text-anchor="middle" x="6369" y="-489.069" font-family="Times,serif" font-size="14.00">thread_id:43538</text>
<text text-anchor="middle" x="6369" y="-474.069" font-family="Times,serif" font-size="14.00">thread_name_list:&quot;gmain&quot;</text>
</g>
<!-- 43539 -->
<g id="node28" class="node"><title>43539</title>
<ellipse fill="none" stroke="black" cx="6125" cy="-485.269" rx="111.946" ry="26.7407"/>
<text text-anchor="middle" x="6125" y="-489.069" font-family="Times,serif" font-size="14.00">thread_id:43539</text>
<text text-anchor="middle" x="6125" y="-474.069" font-family="Times,serif" font-size="14.00">thread_name_list:&quot;gdbus&quot;</text>
</g>
<!-- 43556 -->
<g id="node29" class="node"><title>43556</title>
<ellipse fill="#00cd00" stroke="#00cd00" cx="7440" cy="-485.269" rx="140.929" ry="26.7407"/>
<text text-anchor="middle" x="7440" y="-489.069" font-family="Times,serif" font-size="14.00">thread_id:43556</text>
<text text-anchor="middle" x="7440" y="-474.069" font-family="Times,serif" font-size="14.00">thread_name_list:&quot;menu&#45;cached&quot;</text>
</g>
<!-- 43563 -->
<g id="node30" class="node"><title>43563</title>
<ellipse fill="none" stroke="black" cx="7167" cy="-485.269" rx="113.689" ry="26.7407"/>
<text text-anchor="middle" x="7167" y="-489.069" font-family="Times,serif" font-size="14.00">thread_id:43563</text>
<text text-anchor="middle" x="7167" y="-474.069" font-family="Times,serif" font-size="14.00">thread_name_list:&quot;gmain&quot;</text>
</g>
<!-- 43564 -->
<g id="node31" class="node"><title>43564</title>
<ellipse fill="none" stroke="black" cx="6923" cy="-485.269" rx="111.946" ry="26.7407"/>
<text text-anchor="middle" x="6923" y="-489.069" font-family="Times,serif" font-size="14.00">thread_id:43564</text>
<text text-anchor="middle" x="6923" y="-474.069" font-family="Times,serif" font-size="14.00">thread_name_list:&quot;gdbus&quot;</text>
</g>
<!-- 43726 -->
<g id="node33" class="node"><title>43726</title>
<ellipse fill="#ff6a6a" stroke="#ff6a6a" cx="2765" cy="-127.723" rx="457.496" ry="111.946"/>
<text text-anchor="middle" x="2765" y="-191.523" font-family="Times,serif" font-size="14.00">thread_id:43726</text>
<text text-anchor="middle" x="2765" y="-176.523" font-family="Times,serif" font-size="14.00">thread_name_list:&quot;lxpanel&quot;,&quot;lxde&#45;logout&quot;</text>
<text text-anchor="middle" x="2765" y="-161.523" font-family="Times,serif" font-size="14.00">execve:5221:&quot;/usr/local/sbin/lxde&#45;logout&quot;=&#45;1</text>
<text text-anchor="middle" x="2765" y="-146.523" font-family="Times,serif" font-size="14.00">execve:5223:&quot;/usr/local/bin/lxde&#45;logout&quot;=&#45;1</text>
<text text-anchor="middle" x="2765" y="-131.523" font-family="Times,serif" font-size="14.00">execve:5225:&quot;/usr/sbin/lxde&#45;logout&quot;=&#45;1</text>
<text text-anchor="middle" x="2765" y="-116.523" font-family="Times,serif" font-size="14.00">execve:5227:&quot;/usr/bin/lxde&#45;logout&quot;=0</text>
<text text-anchor="middle" x="2765" y="-101.523" font-family="Times,serif" font-size="14.00">write2:5397:&quot;2&lt;/home/elwin/.cache/lxsession/LXDE/run.log&gt;, &quot;/usr/bin/lxde&#45;logout: 2: /usr/bin/lxde&#45;logout: &quot;, 47&quot;</text>
<text text-anchor="middle" x="2765" y="-86.5229" font-family="Times,serif" font-size="14.00">write2:5399:&quot;2&lt;/home/elwin/.cache/lxsession/LXDE/run.log&gt;, &quot;lxsession&#45;logout: not found&quot;, 27&quot;</text>
<text text-anchor="middle" x="2765" y="-71.5229" font-family="Times,serif" font-size="14.00">write2:5402:&quot;2&lt;/home/elwin/.cache/lxsession/LXDE/run.log&gt;, &quot;\n&quot;, 1&quot;</text>
<text text-anchor="middle" x="2765" y="-56.5229" font-family="Times,serif" font-size="14.00">exit_code:5406:&quot;127&quot;</text>
</g>
<!-- 43725&#45;&gt;43726 -->
<g id="edge4" class="edge"><title>43725&#45;&gt;43726</title>
<path fill="none" stroke="black" d="M2765,-311.233C2765,-294.006 2765,-272.38 2765,-250.097"/>
<polygon fill="black" stroke="black" points="2768.5,-249.826 2765,-239.826 2761.5,-249.826 2768.5,-249.826"/>
<text text-anchor="middle" x="2779" y="-282.246" font-family="Times,serif" font-size="14.00">5174</text>
</g>
</g>
</svg>
