<?xml version="1.0" encoding="UTF-8" standalone="no"?>
<!DOCTYPE svg PUBLIC "-//W3C//DTD SVG 1.1//EN"
 "http://www.w3.org/Graphics/SVG/1.1/DTD/svg11.dtd">
<!-- Generated by graphviz version 2.38.0 (20140413.2041)
 -->
<!-- Title: abc Pages: 1 -->
<svg width="1304pt" height="348pt"
 viewBox="0.00 0.00 1304.00 348.00" xmlns="http://www.w3.org/2000/svg" xmlns:xlink="http://www.w3.org/1999/xlink">
<g id="graph0" class="graph" transform="scale(1 1) rotate(0) translate(4 344)">
<title>abc</title>
<polygon fill="white" stroke="none" points="-4,4 -4,-344 1300,-344 1300,4 -4,4"/>
<g id="clust1" class="cluster"><title>cluster_43417</title>
<polygon fill="none" stroke="blue" points="557,-174 557,-249 695,-249 695,-174 557,-174"/>
<text text-anchor="middle" x="626" y="-233.8" font-family="Times,serif" font-size="14.00">process_id:43417</text>
</g>
<g id="clust2" class="cluster"><title>cluster_43421</title>
<polygon fill="none" stroke="blue" points="8,-91 8,-166 174,-166 174,-91 8,-91"/>
<text text-anchor="middle" x="91" y="-150.8" font-family="Times,serif" font-size="14.00">process_id:43421</text>
</g>
<g id="clust3" class="cluster"><title>cluster_43431</title>
<polygon fill="none" stroke="blue" points="794,-174 794,-249 992,-249 992,-174 794,-174"/>
<text text-anchor="middle" x="893" y="-233.8" font-family="Times,serif" font-size="14.00">process_id:43431</text>
</g>
<g id="clust4" class="cluster"><title>cluster_43451</title>
<polygon fill="none" stroke="blue" points="182,-91 182,-166 344,-166 344,-91 182,-91"/>
<text text-anchor="middle" x="263" y="-150.8" font-family="Times,serif" font-size="14.00">process_id:43451</text>
</g>
<g id="clust5" class="cluster"><title>cluster_43454</title>
<polygon fill="none" stroke="blue" points="665,-257 665,-332 1174,-332 1174,-257 665,-257"/>
<text text-anchor="middle" x="919.5" y="-316.8" font-family="Times,serif" font-size="14.00">process_id:43454</text>
</g>
<g id="clust6" class="cluster"><title>cluster_43455</title>
<polygon fill="none" stroke="blue" points="352,-91 352,-166 522,-166 522,-91 352,-91"/>
<text text-anchor="middle" x="437" y="-150.8" font-family="Times,serif" font-size="14.00">process_id:43455</text>
</g>
<g id="clust7" class="cluster"><title>cluster_43457</title>
<polygon fill="none" stroke="blue" points="530,-91 530,-166 722,-166 722,-91 530,-91"/>
<text text-anchor="middle" x="626" y="-150.8" font-family="Times,serif" font-size="14.00">process_id:43457</text>
</g>
<g id="clust8" class="cluster"><title>cluster_43488</title>
<polygon fill="none" stroke="blue" points="877,-8 877,-83 1075,-83 1075,-8 877,-8"/>
<text text-anchor="middle" x="976" y="-67.8" font-family="Times,serif" font-size="14.00">process_id:43488</text>
</g>
<g id="clust9" class="cluster"><title>cluster_43499</title>
<polygon fill="none" stroke="blue" points="730,-91 730,-166 868,-166 868,-91 730,-91"/>
<text text-anchor="middle" x="799" y="-150.8" font-family="Times,serif" font-size="14.00">process_id:43499</text>
</g>
<g id="clust10" class="cluster"><title>cluster_43502</title>
<polygon fill="none" stroke="blue" points="1084,-91 1084,-166 1288,-166 1288,-91 1084,-91"/>
<text text-anchor="middle" x="1186" y="-150.8" font-family="Times,serif" font-size="14.00">process_id:43502</text>
</g>
<g id="clust11" class="cluster"><title>cluster_43511</title>
<polygon fill="none" stroke="blue" points="876,-91 876,-166 1076,-166 1076,-91 876,-91"/>
<text text-anchor="middle" x="976" y="-150.8" font-family="Times,serif" font-size="14.00">process_id:43511</text>
</g>
<g id="clust12" class="cluster"><title>cluster_43556</title>
<polygon fill="none" stroke="blue" points="1000,-174 1000,-249 1196,-249 1196,-174 1000,-174"/>
<text text-anchor="middle" x="1098" y="-233.8" font-family="Times,serif" font-size="14.00">process_id:43556</text>
</g>
<!-- 43417 -->
<g id="node1" class="node"><title>43417</title>
<ellipse fill="none" stroke="black" cx="626" cy="-200" rx="61.1893" ry="18"/>
<text text-anchor="middle" x="626" y="-196.3" font-family="Times,serif" font-size="14.00">43417 &quot;Xorg&quot;</text>
</g>
<!-- 43421 -->
<g id="node2" class="node"><title>43421</title>
<ellipse fill="none" stroke="black" cx="91" cy="-117" rx="75.2868" ry="18"/>
<text text-anchor="middle" x="91" y="-113.3" font-family="Times,serif" font-size="14.00">43421 &quot;lxsession&quot;</text>
</g>
<!-- 43417&#45;&gt;43421 -->
<g id="edge4" class="edge"><title>43417&#45;&gt;43421</title>
<path fill="none" stroke="purple" d="M565.389,-197.593C462.069,-194.74 256.618,-186.688 187,-166 166.864,-160.016 146.199,-148.864 129.096,-138.815"/>
<polygon fill="purple" stroke="purple" points="130.881,-135.804 120.498,-133.693 127.298,-141.818 130.881,-135.804"/>
</g>
<!-- 43451 -->
<g id="node4" class="node"><title>43451</title>
<ellipse fill="none" stroke="black" cx="263" cy="-117" rx="73.387" ry="18"/>
<text text-anchor="middle" x="263" y="-113.3" font-family="Times,serif" font-size="14.00">43451 &quot;openbox&quot;</text>
</g>
<!-- 43417&#45;&gt;43451 -->
<g id="edge5" class="edge"><title>43417&#45;&gt;43451</title>
<path fill="none" stroke="purple" d="M564.87,-198.617C507.532,-196.668 420.064,-189.57 348,-166 329.284,-159.878 310.046,-149.425 294.617,-139.834"/>
<polygon fill="purple" stroke="purple" points="296.315,-136.765 286.005,-134.325 292.543,-142.662 296.315,-136.765"/>
</g>
<!-- 43455 -->
<g id="node8" class="node"><title>43455</title>
<ellipse fill="none" stroke="black" cx="437" cy="-117" rx="77.1866" ry="18"/>
<text text-anchor="middle" x="437" y="-113.3" font-family="Times,serif" font-size="14.00">43455 &quot;pcmanfm&quot;</text>
</g>
<!-- 43417&#45;&gt;43455 -->
<g id="edge1" class="edge"><title>43417&#45;&gt;43455</title>
<path fill="none" stroke="purple" d="M583.545,-186.805C565.53,-181.166 544.47,-173.955 526,-166 507.939,-158.221 488.644,-148.06 472.652,-139.09"/>
<polygon fill="purple" stroke="purple" points="474.076,-135.874 463.653,-133.974 470.616,-141.959 474.076,-135.874"/>
</g>
<!-- 43457 -->
<g id="node9" class="node"><title>43457</title>
<ellipse fill="none" stroke="black" cx="626" cy="-117" rx="88.2844" ry="18"/>
<text text-anchor="middle" x="626" y="-113.3" font-family="Times,serif" font-size="14.00">43457 &quot;xscreensaver&quot;</text>
</g>
<!-- 43417&#45;&gt;43457 -->
<g id="edge2" class="edge"><title>43417&#45;&gt;43457</title>
<path fill="none" stroke="purple" d="M626,-181.822C626,-171.19 626,-157.306 626,-145.204"/>
<polygon fill="purple" stroke="purple" points="629.5,-145.153 626,-135.153 622.5,-145.153 629.5,-145.153"/>
</g>
<!-- 43499 -->
<g id="node11" class="node"><title>43499</title>
<ellipse fill="none" stroke="black" cx="799" cy="-117" rx="61.1893" ry="18"/>
<text text-anchor="middle" x="799" y="-113.3" font-family="Times,serif" font-size="14.00">43499 &quot;clipit&quot;</text>
</g>
<!-- 43417&#45;&gt;43499 -->
<g id="edge3" class="edge"><title>43417&#45;&gt;43499</title>
<path fill="none" stroke="purple" d="M669.798,-187.279C687.647,-181.808 708.223,-174.592 726,-166 740.98,-158.76 756.524,-148.913 769.4,-140.021"/>
<polygon fill="purple" stroke="purple" points="771.694,-142.686 777.847,-134.061 767.658,-136.966 771.694,-142.686"/>
</g>
<!-- 43511 -->
<g id="node13" class="node"><title>43511</title>
<ellipse fill="none" stroke="black" cx="976" cy="-117" rx="92.0841" ry="18"/>
<text text-anchor="middle" x="976" y="-113.3" font-family="Times,serif" font-size="14.00">43511 &quot;at&#45;spi2&#45;registr&quot;</text>
</g>
<!-- 43417&#45;&gt;43511 -->
<g id="edge6" class="edge"><title>43417&#45;&gt;43511</title>
<path fill="none" stroke="purple" d="M677.972,-190.343C710.173,-185.162 752.419,-178.694 790,-174 826.335,-169.461 836.659,-175.584 872,-166 895.091,-159.738 919.449,-148.76 938.782,-138.882"/>
<polygon fill="purple" stroke="purple" points="940.601,-141.88 947.842,-134.146 937.358,-135.677 940.601,-141.88"/>
</g>
<!-- 43421&#45;&gt;43417 -->
<g id="edge7" class="edge"><title>43421&#45;&gt;43417</title>
<path fill="none" stroke="purple" d="M106.944,-134.634C122.341,-145.606 146.015,-159.17 169,-166 238.776,-186.734 445.001,-194.777 555.07,-197.612"/>
<polygon fill="purple" stroke="purple" points="555.005,-201.112 565.09,-197.863 555.181,-194.114 555.005,-201.112"/>
</g>
<!-- 43431 -->
<g id="node3" class="node"><title>43431</title>
<ellipse fill="none" stroke="black" cx="893" cy="-200" rx="90.9839" ry="18"/>
<text text-anchor="middle" x="893" y="-196.3" font-family="Times,serif" font-size="14.00">43431 &quot;dbus&#45;daemon&quot;</text>
</g>
<!-- 43502 -->
<g id="node12" class="node"><title>43502</title>
<ellipse fill="none" stroke="black" cx="1186" cy="-117" rx="94.4839" ry="18"/>
<text text-anchor="middle" x="1186" y="-113.3" font-family="Times,serif" font-size="14.00">43502 &quot;zeitgeist&#45;datah&quot;</text>
</g>
<!-- 43431&#45;&gt;43502 -->
<g id="edge8" class="edge"><title>43431&#45;&gt;43502</title>
<path fill="none" stroke="purple" d="M944.044,-185.081C960.524,-181 978.942,-176.867 996,-174 1032.98,-167.783 1043.76,-175.644 1080,-166 1103.59,-159.721 1128.54,-148.673 1148.29,-138.757"/>
<polygon fill="purple" stroke="purple" points="1149.97,-141.834 1157.27,-134.155 1146.77,-135.605 1149.97,-141.834"/>
</g>
<!-- 43454 -->
<g id="node5" class="node"><title>43454</title>
<ellipse fill="none" stroke="black" cx="742" cy="-283" rx="68.7879" ry="18"/>
<text text-anchor="middle" x="742" y="-279.3" font-family="Times,serif" font-size="14.00">43454 &quot;lxpanel&quot;</text>
</g>
<!-- 43454&#45;&gt;43417 -->
<g id="edge9" class="edge"><title>43454&#45;&gt;43417</title>
<path fill="none" stroke="purple" d="M719.082,-265.997C701.367,-253.627 676.658,-236.374 657.15,-222.751"/>
<polygon fill="purple" stroke="purple" points="659.073,-219.825 648.87,-216.97 655.065,-225.565 659.073,-219.825"/>
</g>
<!-- 43476 -->
<g id="node6" class="node"><title>43476</title>
<ellipse fill="none" stroke="black" cx="893" cy="-283" rx="63.8893" ry="18"/>
<text text-anchor="middle" x="893" y="-279.3" font-family="Times,serif" font-size="14.00">43476 &quot;gdbus&quot;</text>
</g>
<!-- 43476&#45;&gt;43431 -->
<g id="edge10" class="edge"><title>43476&#45;&gt;43431</title>
<path fill="none" stroke="purple" d="M893,-264.822C893,-254.19 893,-240.306 893,-228.204"/>
<polygon fill="purple" stroke="purple" points="896.5,-228.153 893,-218.153 889.5,-228.153 896.5,-228.153"/>
</g>
<!-- 43557 -->
<g id="node7" class="node"><title>43557</title>
<ellipse fill="none" stroke="black" cx="1070" cy="-283" rx="95.5831" ry="18"/>
<text text-anchor="middle" x="1070" y="-279.3" font-family="Times,serif" font-size="14.00">43557 &quot;menu&#45;cache&#45;io&quot;</text>
</g>
<!-- 43556 -->
<g id="node14" class="node"><title>43556</title>
<ellipse fill="none" stroke="black" cx="1098" cy="-200" rx="90.1842" ry="18"/>
<text text-anchor="middle" x="1098" y="-196.3" font-family="Times,serif" font-size="14.00">43556 &quot;menu&#45;cached&quot;</text>
</g>
<!-- 43557&#45;&gt;43556 -->
<g id="edge12" class="edge"><title>43557&#45;&gt;43556</title>
<path fill="none" stroke="purple" d="M1075.94,-264.822C1079.65,-254.083 1084.51,-240.025 1088.72,-227.837"/>
<polygon fill="purple" stroke="purple" points="1092.11,-228.748 1092.07,-218.153 1085.5,-226.461 1092.11,-228.748"/>
</g>
<!-- 43488 -->
<g id="node10" class="node"><title>43488</title>
<ellipse fill="none" stroke="black" cx="976" cy="-34" rx="90.9839" ry="18"/>
<text text-anchor="middle" x="976" y="-30.3" font-family="Times,serif" font-size="14.00">43488 &quot;dbus&#45;daemon&quot;</text>
</g>
<!-- 43511&#45;&gt;43488 -->
<g id="edge11" class="edge"><title>43511&#45;&gt;43488</title>
<path fill="none" stroke="purple" d="M976,-98.822C976,-88.1903 976,-74.306 976,-62.2035"/>
<polygon fill="purple" stroke="purple" points="979.5,-62.1532 976,-52.1533 972.5,-62.1533 979.5,-62.1532"/>
</g>
</g>
</svg>
