<?xml version="1.0" encoding="UTF-8" standalone="no"?>
<!DOCTYPE svg PUBLIC "-//W3C//DTD SVG 1.1//EN"
 "http://www.w3.org/Graphics/SVG/1.1/DTD/svg11.dtd">
<!-- Generated by graphviz version 2.38.0 (20140413.2041)
 -->
<!-- Title: abc Pages: 1 -->
<svg width="3901pt" height="1426pt"
 viewBox="0.00 0.00 3901.00 1425.80" xmlns="http://www.w3.org/2000/svg" xmlns:xlink="http://www.w3.org/1999/xlink">
<g id="graph0" class="graph" transform="scale(1 1) rotate(0) translate(4 1421.8)">
<title>abc</title>
<polygon fill="white" stroke="none" points="-4,4 -4,-1421.8 3897,-1421.8 3897,4 -4,4"/>
<g id="clust1" class="cluster"><title>cluster_92684</title>
<polygon fill="none" stroke="blue" points="749,-1126.14 749,-1409.8 1679,-1409.8 1679,-1126.14 749,-1126.14"/>
<text text-anchor="middle" x="1214" y="-1394.6" font-family="Times,serif" font-size="14.00">process_id:92684</text>
</g>
<g id="clust2" class="cluster"><title>cluster_92690</title>
<polygon fill="none" stroke="blue" points="8,-851.911 8,-1093.14 350,-1093.14 350,-851.911 8,-851.911"/>
<text text-anchor="middle" x="179" y="-1077.94" font-family="Times,serif" font-size="14.00">process_id:92690</text>
</g>
<g id="clust3" class="cluster"><title>cluster_92691</title>
<polygon fill="none" stroke="blue" points="358,-851.911 358,-1093.14 700,-1093.14 700,-851.911 358,-851.911"/>
<text text-anchor="middle" x="529" y="-1077.94" font-family="Times,serif" font-size="14.00">process_id:92691</text>
</g>
<g id="clust4" class="cluster"><title>cluster_92692</title>
<polygon fill="none" stroke="blue" points="708,-851.911 708,-1093.14 1050,-1093.14 1050,-851.911 708,-851.911"/>
<text text-anchor="middle" x="879" y="-1077.94" font-family="Times,serif" font-size="14.00">process_id:92692</text>
</g>
<g id="clust5" class="cluster"><title>cluster_92693</title>
<polygon fill="none" stroke="blue" points="1058,-904.944 1058,-1040.11 1370,-1040.11 1370,-904.944 1058,-904.944"/>
<text text-anchor="middle" x="1214" y="-1024.91" font-family="Times,serif" font-size="14.00">process_id:92693</text>
</g>
<g id="clust6" class="cluster"><title>cluster_92694</title>
<polygon fill="none" stroke="blue" points="1378,-873.124 1378,-1071.93 1710,-1071.93 1710,-873.124 1378,-873.124"/>
<text text-anchor="middle" x="1544" y="-1056.73" font-family="Times,serif" font-size="14.00">process_id:92694</text>
</g>
<g id="clust7" class="cluster"><title>cluster_92695</title>
<polygon fill="none" stroke="blue" points="1718,-904.944 1718,-1040.11 1982,-1040.11 1982,-904.944 1718,-904.944"/>
<text text-anchor="middle" x="1850" y="-1024.91" font-family="Times,serif" font-size="14.00">process_id:92695</text>
</g>
<g id="clust8" class="cluster"><title>cluster_92696</title>
<polygon fill="none" stroke="blue" points="1713,-641.318 1713,-776.484 1987,-776.484 1987,-641.318 1713,-641.318"/>
<text text-anchor="middle" x="1850" y="-761.284" font-family="Times,serif" font-size="14.00">process_id:92696</text>
</g>
<g id="clust9" class="cluster"><title>cluster_92697</title>
<polygon fill="none" stroke="blue" points="999,-598.891 999,-818.911 1705,-818.911 1705,-598.891 999,-598.891"/>
<text text-anchor="middle" x="1352" y="-803.711" font-family="Times,serif" font-size="14.00">process_id:92697</text>
</g>
<g id="clust10" class="cluster"><title>cluster_92698</title>
<polygon fill="none" stroke="blue" points="2021,-904.944 2021,-1040.11 2285,-1040.11 2285,-904.944 2021,-904.944"/>
<text text-anchor="middle" x="2153" y="-1024.91" font-family="Times,serif" font-size="14.00">process_id:92698</text>
</g>
<g id="clust11" class="cluster"><title>cluster_92699</title>
<polygon fill="none" stroke="blue" points="1995,-641.318 1995,-776.484 2375,-776.484 2375,-641.318 1995,-641.318"/>
<text text-anchor="middle" x="2185" y="-761.284" font-family="Times,serif" font-size="14.00">process_id:92699</text>
</g>
<g id="clust12" class="cluster"><title>cluster_92700</title>
<polygon fill="none" stroke="blue" points="3545,-388.299 3545,-523.465 3885,-523.465 3885,-388.299 3545,-388.299"/>
<text text-anchor="middle" x="3715" y="-508.265" font-family="Times,serif" font-size="14.00">process_id:92700</text>
</g>
<g id="clust13" class="cluster"><title>cluster_92705</title>
<polygon fill="none" stroke="blue" points="1210,-388.299 1210,-523.465 1494,-523.465 1494,-388.299 1210,-388.299"/>
<text text-anchor="middle" x="1352" y="-508.265" font-family="Times,serif" font-size="14.00">process_id:92705</text>
</g>
<g id="clust14" class="cluster"><title>cluster_92706</title>
<polygon fill="none" stroke="blue" points="1224,-92.8528 1224,-228.019 1480,-228.019 1480,-92.8528 1224,-92.8528"/>
<text text-anchor="middle" x="1352" y="-212.819" font-family="Times,serif" font-size="14.00">process_id:92706</text>
</g>
<g id="clust15" class="cluster"><title>cluster_92707</title>
<polygon fill="none" stroke="blue" points="1513,-398.905 1513,-512.858 1867,-512.858 1867,-398.905 1513,-398.905"/>
<text text-anchor="middle" x="1690" y="-497.658" font-family="Times,serif" font-size="14.00">process_id:92707</text>
</g>
<g id="clust16" class="cluster"><title>cluster_92708</title>
<polygon fill="none" stroke="blue" points="1875,-114.066 1875,-565.891 2425,-565.891 2425,-114.066 1875,-114.066"/>
<text text-anchor="middle" x="2150" y="-550.691" font-family="Times,serif" font-size="14.00">process_id:92708</text>
</g>
<g id="clust17" class="cluster"><title>cluster_92709</title>
<polygon fill="none" stroke="blue" points="2433,-388.299 2433,-523.465 3537,-523.465 3537,-388.299 2433,-388.299"/>
<text text-anchor="middle" x="2985" y="-508.265" font-family="Times,serif" font-size="14.00">process_id:92709</text>
</g>
<g id="clust18" class="cluster"><title>cluster_92719</title>
<polygon fill="none" stroke="blue" points="2433,-82.2462 2433,-238.626 3445,-238.626 3445,-82.2462 2433,-82.2462"/>
<text text-anchor="middle" x="2939" y="-223.426" font-family="Times,serif" font-size="14.00">process_id:92719</text>
</g>
<g id="clust19" class="cluster"><title>cluster_92720</title>
<polygon fill="none" stroke="blue" points="3453,-8 3453,-312.872 3807,-312.872 3807,-8 3453,-8"/>
<text text-anchor="middle" x="3630" y="-297.672" font-family="Times,serif" font-size="14.00">process_id:92720</text>
</g>
<!-- 92684 -->
<g id="node1" class="node"><title>92684</title>
<ellipse fill="#c4c4c4" stroke="#c4c4c4" cx="1214" cy="-1256.47" rx="457.496" ry="122.159"/>
<text text-anchor="middle" x="1214" y="-1327.77" font-family="Times,serif" font-size="14.00">thread_id:92684</text>
<text text-anchor="middle" x="1214" y="-1312.77" font-family="Times,serif" font-size="14.00">thread_name_list:&quot;a.sh&quot;,&quot;vncserver&quot;,&quot;perl&quot;</text>
<text text-anchor="middle" x="1214" y="-1297.77" font-family="Times,serif" font-size="14.00">execve:36:&quot;/usr/bin/vncserver&quot;=0</text>
<text text-anchor="middle" x="1214" y="-1282.77" font-family="Times,serif" font-size="14.00">execve:67:&quot;/usr/local/sbin/perl&quot;=&#45;1</text>
<text text-anchor="middle" x="1214" y="-1267.77" font-family="Times,serif" font-size="14.00">execve:68:&quot;/usr/local/bin/perl&quot;=&#45;1</text>
<text text-anchor="middle" x="1214" y="-1252.77" font-family="Times,serif" font-size="14.00">execve:69:&quot;/usr/sbin/perl&quot;=&#45;1</text>
<text text-anchor="middle" x="1214" y="-1237.77" font-family="Times,serif" font-size="14.00">execve:70:&quot;/usr/bin/perl&quot;=0</text>
<text text-anchor="middle" x="1214" y="-1222.77" font-family="Times,serif" font-size="14.00">write2:1353:&quot;2&lt;/dev/pts/5&gt;, &quot;\nNew &#39;elwin&#45;virtual&#45;machine:1 (elwin)&#39; desktop is elwin&#45;virtual&#45;machine:1\n\n&quot;, 75&quot;</text>
<text text-anchor="middle" x="1214" y="-1207.77" font-family="Times,serif" font-size="14.00">write2:1355:&quot;2&lt;/dev/pts/5&gt;, &quot;Starting applications specified in /home/elwin/.vnc/xstartup\n&quot;, 61&quot;</text>
<text text-anchor="middle" x="1214" y="-1192.77" font-family="Times,serif" font-size="14.00">write2:1356:&quot;2&lt;/dev/pts/5&gt;, &quot;Log file is /home/elwin/.vnc/elwin&#45;virtual&#45;machine:1.log\n\n&quot;, 58&quot;</text>
<text text-anchor="middle" x="1214" y="-1177.77" font-family="Times,serif" font-size="14.00">exit_code:1563:&quot;0&quot;</text>
</g>
<!-- 92690 -->
<g id="node2" class="node"><title>92690</title>
<ellipse fill="#c4c4c4" stroke="#c4c4c4" cx="179" cy="-961.027" rx="162.769" ry="101.233"/>
<text text-anchor="middle" x="179" y="-1017.33" font-family="Times,serif" font-size="14.00">thread_id:92690</text>
<text text-anchor="middle" x="179" y="-1002.33" font-family="Times,serif" font-size="14.00">thread_name_list:&quot;perl&quot;,&quot;uname&quot;</text>
<text text-anchor="middle" x="179" y="-987.327" font-family="Times,serif" font-size="14.00">execve:244:&quot;/usr/local/sbin/uname&quot;=&#45;1</text>
<text text-anchor="middle" x="179" y="-972.327" font-family="Times,serif" font-size="14.00">execve:245:&quot;/usr/local/bin/uname&quot;=&#45;1</text>
<text text-anchor="middle" x="179" y="-957.327" font-family="Times,serif" font-size="14.00">execve:246:&quot;/usr/sbin/uname&quot;=&#45;1</text>
<text text-anchor="middle" x="179" y="-942.327" font-family="Times,serif" font-size="14.00">execve:247:&quot;/usr/bin/uname&quot;=&#45;1</text>
<text text-anchor="middle" x="179" y="-927.327" font-family="Times,serif" font-size="14.00">execve:248:&quot;/sbin/uname&quot;=&#45;1</text>
<text text-anchor="middle" x="179" y="-912.327" font-family="Times,serif" font-size="14.00">execve:249:&quot;/bin/uname&quot;=0</text>
<text text-anchor="middle" x="179" y="-897.327" font-family="Times,serif" font-size="14.00">exit_code:292:&quot;0&quot;</text>
</g>
<!-- 92684&#45;&gt;92690 -->
<g id="edge1" class="edge"><title>92684&#45;&gt;92690</title>
<path fill="none" stroke="black" d="M785.022,-1213.81C643.616,-1189.89 488.278,-1152.27 354,-1093.14 328.626,-1081.97 303.487,-1066.5 280.514,-1050.1"/>
<polygon fill="black" stroke="black" points="282.298,-1047.07 272.152,-1044.02 278.182,-1052.73 282.298,-1047.07"/>
<text text-anchor="middle" x="408.5" y="-1104.94" font-family="Times,serif" font-size="14.00">233</text>
</g>
<!-- 92691 -->
<g id="node3" class="node"><title>92691</title>
<ellipse fill="#c4c4c4" stroke="#c4c4c4" cx="529" cy="-961.027" rx="162.769" ry="101.233"/>
<text text-anchor="middle" x="529" y="-1017.33" font-family="Times,serif" font-size="14.00">thread_id:92691</text>
<text text-anchor="middle" x="529" y="-1002.33" font-family="Times,serif" font-size="14.00">thread_name_list:&quot;perl&quot;,&quot;uname&quot;</text>
<text text-anchor="middle" x="529" y="-987.327" font-family="Times,serif" font-size="14.00">execve:310:&quot;/usr/local/sbin/uname&quot;=&#45;1</text>
<text text-anchor="middle" x="529" y="-972.327" font-family="Times,serif" font-size="14.00">execve:311:&quot;/usr/local/bin/uname&quot;=&#45;1</text>
<text text-anchor="middle" x="529" y="-957.327" font-family="Times,serif" font-size="14.00">execve:312:&quot;/usr/sbin/uname&quot;=&#45;1</text>
<text text-anchor="middle" x="529" y="-942.327" font-family="Times,serif" font-size="14.00">execve:313:&quot;/usr/bin/uname&quot;=&#45;1</text>
<text text-anchor="middle" x="529" y="-927.327" font-family="Times,serif" font-size="14.00">execve:314:&quot;/sbin/uname&quot;=&#45;1</text>
<text text-anchor="middle" x="529" y="-912.327" font-family="Times,serif" font-size="14.00">execve:315:&quot;/bin/uname&quot;=0</text>
<text text-anchor="middle" x="529" y="-897.327" font-family="Times,serif" font-size="14.00">exit_code:358:&quot;0&quot;</text>
</g>
<!-- 92684&#45;&gt;92691 -->
<g id="edge2" class="edge"><title>92684&#45;&gt;92691</title>
<path fill="none" stroke="black" d="M889.455,-1170.19C826.388,-1148.65 761.928,-1122.98 704,-1093.14 679.953,-1080.76 655.735,-1065.11 633.305,-1048.98"/>
<polygon fill="black" stroke="black" points="635.269,-1046.08 625.126,-1043.02 631.146,-1051.73 635.269,-1046.08"/>
<text text-anchor="middle" x="753.5" y="-1104.94" font-family="Times,serif" font-size="14.00">299</text>
</g>
<!-- 92692 -->
<g id="node4" class="node"><title>92692</title>
<ellipse fill="#c4c4c4" stroke="#c4c4c4" cx="879" cy="-961.027" rx="162.769" ry="101.233"/>
<text text-anchor="middle" x="879" y="-1017.33" font-family="Times,serif" font-size="14.00">thread_id:92692</text>
<text text-anchor="middle" x="879" y="-1002.33" font-family="Times,serif" font-size="14.00">thread_name_list:&quot;perl&quot;,&quot;uname&quot;</text>
<text text-anchor="middle" x="879" y="-987.327" font-family="Times,serif" font-size="14.00">execve:561:&quot;/usr/local/sbin/uname&quot;=&#45;1</text>
<text text-anchor="middle" x="879" y="-972.327" font-family="Times,serif" font-size="14.00">execve:562:&quot;/usr/local/bin/uname&quot;=&#45;1</text>
<text text-anchor="middle" x="879" y="-957.327" font-family="Times,serif" font-size="14.00">execve:563:&quot;/usr/sbin/uname&quot;=&#45;1</text>
<text text-anchor="middle" x="879" y="-942.327" font-family="Times,serif" font-size="14.00">execve:564:&quot;/usr/bin/uname&quot;=&#45;1</text>
<text text-anchor="middle" x="879" y="-927.327" font-family="Times,serif" font-size="14.00">execve:565:&quot;/sbin/uname&quot;=&#45;1</text>
<text text-anchor="middle" x="879" y="-912.327" font-family="Times,serif" font-size="14.00">execve:566:&quot;/bin/uname&quot;=0</text>
<text text-anchor="middle" x="879" y="-897.327" font-family="Times,serif" font-size="14.00">exit_code:609:&quot;0&quot;</text>
</g>
<!-- 92684&#45;&gt;92692 -->
<g id="edge3" class="edge"><title>92684&#45;&gt;92692</title>
<path fill="none" stroke="black" d="M1081.12,-1139.07C1047.46,-1109.59 1011.86,-1078.41 980.066,-1050.56"/>
<polygon fill="black" stroke="black" points="982.325,-1047.88 972.496,-1043.93 977.712,-1053.15 982.325,-1047.88"/>
<text text-anchor="middle" x="1057.5" y="-1104.94" font-family="Times,serif" font-size="14.00">550</text>
</g>
<!-- 92693 -->
<g id="node5" class="node"><title>92693</title>
<ellipse fill="#c4c4c4" stroke="#c4c4c4" cx="1214" cy="-961.027" rx="148.485" ry="48.1667"/>
<text text-anchor="middle" x="1214" y="-979.827" font-family="Times,serif" font-size="14.00">thread_id:92693</text>
<text text-anchor="middle" x="1214" y="-964.827" font-family="Times,serif" font-size="14.00">thread_name_list:&quot;perl&quot;,&quot;mcookie&quot;</text>
<text text-anchor="middle" x="1214" y="-949.827" font-family="Times,serif" font-size="14.00">execve:656:&quot;/usr/bin/mcookie&quot;=0</text>
<text text-anchor="middle" x="1214" y="-934.827" font-family="Times,serif" font-size="14.00">exit_code:707:&quot;0&quot;</text>
</g>
<!-- 92684&#45;&gt;92693 -->
<g id="edge4" class="edge"><title>92684&#45;&gt;92693</title>
<path fill="none" stroke="black" d="M1214,-1134C1214,-1094.3 1214,-1052.07 1214,-1019.39"/>
<polygon fill="black" stroke="black" points="1217.5,-1019.13 1214,-1009.13 1210.5,-1019.13 1217.5,-1019.13"/>
<text text-anchor="middle" x="1224.5" y="-1104.94" font-family="Times,serif" font-size="14.00">645</text>
</g>
<!-- 92694 -->
<g id="node6" class="node"><title>92694</title>
<ellipse fill="#ff6a6a" stroke="#ff6a6a" cx="1544" cy="-961.027" rx="158.284" ry="79.8063"/>
<text text-anchor="middle" x="1544" y="-1002.33" font-family="Times,serif" font-size="14.00">thread_id:92694</text>
<text text-anchor="middle" x="1544" y="-987.327" font-family="Times,serif" font-size="14.00">thread_name_list:&quot;perl&quot;,&quot;xauth&quot;</text>
<text text-anchor="middle" x="1544" y="-972.327" font-family="Times,serif" font-size="14.00">execve:726:&quot;/usr/local/sbin/xauth&quot;=&#45;1</text>
<text text-anchor="middle" x="1544" y="-957.327" font-family="Times,serif" font-size="14.00">execve:727:&quot;/usr/local/bin/xauth&quot;=&#45;1</text>
<text text-anchor="middle" x="1544" y="-942.327" font-family="Times,serif" font-size="14.00">execve:728:&quot;/usr/sbin/xauth&quot;=&#45;1</text>
<text text-anchor="middle" x="1544" y="-927.327" font-family="Times,serif" font-size="14.00">execve:729:&quot;/usr/bin/xauth&quot;=0</text>
<text text-anchor="middle" x="1544" y="-912.327" font-family="Times,serif" font-size="14.00">exit_code:906:&quot;1&quot;</text>
</g>
<!-- 92684&#45;&gt;92694 -->
<g id="edge5" class="edge"><title>92684&#45;&gt;92694</title>
<path fill="none" stroke="black" d="M1344.9,-1139.07C1383.21,-1105.01 1424.09,-1068.66 1458.77,-1037.82"/>
<polygon fill="black" stroke="black" points="1461.38,-1040.18 1466.53,-1030.92 1456.73,-1034.95 1461.38,-1040.18"/>
<text text-anchor="middle" x="1389.5" y="-1104.94" font-family="Times,serif" font-size="14.00">714</text>
</g>
<!-- 92695 -->
<g id="node7" class="node"><title>92695</title>
<ellipse fill="#c4c4c4" stroke="#c4c4c4" cx="1850" cy="-961.027" rx="123.988" ry="48.1667"/>
<text text-anchor="middle" x="1850" y="-979.827" font-family="Times,serif" font-size="14.00">thread_id:92695</text>
<text text-anchor="middle" x="1850" y="-964.827" font-family="Times,serif" font-size="14.00">thread_name_list:&quot;perl&quot;,&quot;sh&quot;</text>
<text text-anchor="middle" x="1850" y="-949.827" font-family="Times,serif" font-size="14.00">execve:922:&quot;/bin/sh&quot;=0</text>
<text text-anchor="middle" x="1850" y="-934.827" font-family="Times,serif" font-size="14.00">exit_code:1037:&quot;0&quot;</text>
</g>
<!-- 92684&#45;&gt;92695 -->
<g id="edge6" class="edge"><title>92684&#45;&gt;92695</title>
<path fill="none" stroke="black" d="M1544.44,-1171.77C1603,-1150.43 1661.86,-1124.43 1714,-1093.14 1748.7,-1072.32 1781.55,-1041.1 1806.27,-1014.36"/>
<polygon fill="black" stroke="black" points="1808.87,-1016.69 1813.02,-1006.94 1803.7,-1011.98 1808.87,-1016.69"/>
<text text-anchor="middle" x="1700.5" y="-1104.94" font-family="Times,serif" font-size="14.00">912</text>
</g>
<!-- 92698 -->
<g id="node10" class="node"><title>92698</title>
<ellipse fill="#c4c4c4" stroke="#c4c4c4" cx="2153" cy="-961.027" rx="123.988" ry="48.1667"/>
<text text-anchor="middle" x="2153" y="-979.827" font-family="Times,serif" font-size="14.00">thread_id:92698</text>
<text text-anchor="middle" x="2153" y="-964.827" font-family="Times,serif" font-size="14.00">thread_name_list:&quot;perl&quot;,&quot;sh&quot;</text>
<text text-anchor="middle" x="2153" y="-949.827" font-family="Times,serif" font-size="14.00">execve:1370:&quot;/bin/sh&quot;=0</text>
<text text-anchor="middle" x="2153" y="-934.827" font-family="Times,serif" font-size="14.00">exit_code:1415:&quot;0&quot;</text>
</g>
<!-- 92684&#45;&gt;92698 -->
<g id="edge7" class="edge"><title>92684&#45;&gt;92698</title>
<path fill="none" stroke="black" d="M1628.43,-1204.45C1747.5,-1180.28 1875.07,-1144.89 1986,-1093.14 2028.5,-1073.32 2070,-1040.82 2101,-1013.14"/>
<polygon fill="black" stroke="black" points="2103.58,-1015.52 2108.65,-1006.21 2098.89,-1010.33 2103.58,-1015.52"/>
<text text-anchor="middle" x="1981" y="-1104.94" font-family="Times,serif" font-size="14.00">1360</text>
</g>
<!-- 92696 -->
<g id="node8" class="node"><title>92696</title>
<ellipse fill="#c4c4c4" stroke="#c4c4c4" cx="1850" cy="-697.401" rx="128.887" ry="48.1667"/>
<text text-anchor="middle" x="1850" y="-716.201" font-family="Times,serif" font-size="14.00">thread_id:92696</text>
<text text-anchor="middle" x="1850" y="-701.201" font-family="Times,serif" font-size="14.00">thread_name_list:&quot;sh&quot;,&quot;sleep&quot;</text>
<text text-anchor="middle" x="1850" y="-686.201" font-family="Times,serif" font-size="14.00">execve:973:&quot;/bin/sleep&quot;=0</text>
<text text-anchor="middle" x="1850" y="-671.201" font-family="Times,serif" font-size="14.00">exit_code:1008:&quot;0&quot;</text>
</g>
<!-- 92695&#45;&gt;92696 -->
<g id="edge8" class="edge"><title>92695&#45;&gt;92696</title>
<path fill="none" stroke="black" d="M1850,-912.649C1850,-868.612 1850,-802.924 1850,-755.902"/>
<polygon fill="black" stroke="black" points="1853.5,-755.868 1850,-745.868 1846.5,-755.869 1853.5,-755.868"/>
<text text-anchor="middle" x="1860.5" y="-830.711" font-family="Times,serif" font-size="14.00">972</text>
</g>
<!-- 92697 -->
<g id="node9" class="node"><title>92697</title>
<ellipse fill="#00cd00" stroke="#00cd00" cx="1352" cy="-697.401" rx="345.136" ry="90.5193"/>
<text text-anchor="middle" x="1352" y="-746.201" font-family="Times,serif" font-size="14.00">thread_id:92697</text>
<text text-anchor="middle" x="1352" y="-731.201" font-family="Times,serif" font-size="14.00">thread_name_list:&quot;sh&quot;,&quot;Xvnc4&quot;</text>
<text text-anchor="middle" x="1352" y="-716.201" font-family="Times,serif" font-size="14.00">execve:1044:&quot;/usr/bin/Xvnc4&quot;=0</text>
<text text-anchor="middle" x="1352" y="-701.201" font-family="Times,serif" font-size="14.00">write2:13620:&quot;2&lt;/home/elwin/.vnc/elwin&#45;virtual&#45;machine:1.log&gt;, &quot; 16&quot;, 3&quot;</text>
<text text-anchor="middle" x="1352" y="-686.201" font-family="Times,serif" font-size="14.00">write2:13621:&quot;2&lt;/home/elwin/.vnc/elwin&#45;virtual&#45;machine:1.log&gt;, &quot; (16bpp)&quot;, 8&quot;</text>
<text text-anchor="middle" x="1352" y="-671.201" font-family="Times,serif" font-size="14.00">write2:13622:&quot;2&lt;/home/elwin/.vnc/elwin&#45;virtual&#45;machine:1.log&gt;, &quot; little&#45;endian&quot;, 14&quot;</text>
<text text-anchor="middle" x="1352" y="-656.201" font-family="Times,serif" font-size="14.00">write2:13623:&quot;2&lt;/home/elwin/.vnc/elwin&#45;virtual&#45;machine:1.log&gt;, &quot; rgb565&quot;, 7&quot;</text>
<text text-anchor="middle" x="1352" y="-641.201" font-family="Times,serif" font-size="14.00">write2:13624:&quot;2&lt;/home/elwin/.vnc/elwin&#45;virtual&#45;machine:1.log&gt;, &quot;\n&quot;, 1&quot;</text>
</g>
<!-- 92695&#45;&gt;92697 -->
<g id="edge9" class="edge"><title>92695&#45;&gt;92697</title>
<path fill="none" stroke="black" d="M1801.98,-916.568C1776.94,-895.32 1745.11,-870.407 1714,-851.911 1666.12,-823.445 1611.98,-797.529 1560.44,-775.43"/>
<polygon fill="black" stroke="black" points="1561.76,-772.187 1551.19,-771.491 1559.02,-778.628 1561.76,-772.187"/>
<text text-anchor="middle" x="1710" y="-830.711" font-family="Times,serif" font-size="14.00">1012</text>
</g>
<!-- 92705 -->
<g id="node13" class="node"><title>92705</title>
<ellipse fill="#c4c4c4" stroke="#c4c4c4" cx="1352" cy="-444.382" rx="134.201" ry="48.1667"/>
<text text-anchor="middle" x="1352" y="-463.182" font-family="Times,serif" font-size="14.00">thread_id:92705</text>
<text text-anchor="middle" x="1352" y="-448.182" font-family="Times,serif" font-size="14.00">thread_name_list:&quot;Xvnc4&quot;,&quot;sh&quot;</text>
<text text-anchor="middle" x="1352" y="-433.182" font-family="Times,serif" font-size="14.00">execve:1719:&quot;/bin/sh&quot;=0</text>
<text text-anchor="middle" x="1352" y="-418.182" font-family="Times,serif" font-size="14.00">exit_code:1819:&quot;0&quot;</text>
</g>
<!-- 92697&#45;&gt;92705 -->
<g id="edge10" class="edge"><title>92697&#45;&gt;92705</title>
<path fill="none" stroke="black" d="M1352,-606.841C1352,-572.18 1352,-533.524 1352,-502.728"/>
<polygon fill="black" stroke="black" points="1355.5,-502.602 1352,-492.602 1348.5,-502.602 1355.5,-502.602"/>
<text text-anchor="middle" x="1366" y="-577.691" font-family="Times,serif" font-size="14.00">1708</text>
</g>
<!-- 92699 -->
<g id="node11" class="node"><title>92699</title>
<ellipse fill="#c4c4c4" stroke="#c4c4c4" cx="2185" cy="-697.401" rx="182.367" ry="48.1667"/>
<text text-anchor="middle" x="2185" y="-716.201" font-family="Times,serif" font-size="14.00">thread_id:92699</text>
<text text-anchor="middle" x="2185" y="-701.201" font-family="Times,serif" font-size="14.00">thread_name_list:&quot;sh&quot;,&quot;xstartup&quot;</text>
<text text-anchor="middle" x="2185" y="-686.201" font-family="Times,serif" font-size="14.00">execve:1443:&quot;/home/elwin/.vnc/xstartup&quot;=0</text>
<text text-anchor="middle" x="2185" y="-671.201" font-family="Times,serif" font-size="14.00">exit_code:1965:&quot;0&quot;</text>
</g>
<!-- 92698&#45;&gt;92699 -->
<g id="edge11" class="edge"><title>92698&#45;&gt;92699</title>
<path fill="none" stroke="black" d="M2158.76,-912.951C2164.16,-868.818 2172.24,-802.747 2178,-755.597"/>
<polygon fill="black" stroke="black" points="2181.49,-755.89 2179.23,-745.539 2174.55,-755.041 2181.49,-755.89"/>
<text text-anchor="middle" x="2183" y="-830.711" font-family="Times,serif" font-size="14.00">1414</text>
</g>
<!-- 92700 -->
<g id="node12" class="node"><title>92700</title>
<ellipse fill="#c4c4c4" stroke="#c4c4c4" cx="3715" cy="-444.382" rx="161.855" ry="48.1667"/>
<text text-anchor="middle" x="3715" y="-463.182" font-family="Times,serif" font-size="14.00">thread_id:92700</text>
<text text-anchor="middle" x="3715" y="-448.182" font-family="Times,serif" font-size="14.00">thread_name_list:&quot;xstartup&quot;,&quot;xsetroot&quot;</text>
<text text-anchor="middle" x="3715" y="-433.182" font-family="Times,serif" font-size="14.00">execve:1557:&quot;/usr/bin/xsetroot&quot;=0</text>
<text text-anchor="middle" x="3715" y="-418.182" font-family="Times,serif" font-size="14.00">exit_code:1925:&quot;0&quot;</text>
</g>
<!-- 92699&#45;&gt;92700 -->
<g id="edge12" class="edge"><title>92699&#45;&gt;92700</title>
<path fill="none" stroke="black" d="M2365.59,-690.298C2683.57,-677.689 3329.73,-643.213 3541,-565.891 3583.47,-550.349 3625.32,-521.899 3657.33,-496.544"/>
<polygon fill="black" stroke="black" points="3659.65,-499.168 3665.25,-490.174 3655.26,-493.713 3659.65,-499.168"/>
<text text-anchor="middle" x="3517" y="-577.691" font-family="Times,serif" font-size="14.00">1550</text>
</g>
<!-- 92707 -->
<g id="node15" class="node"><title>92707</title>
<ellipse fill="#00cd00" stroke="#00cd00" cx="1690" cy="-444.382" rx="168.997" ry="37.4533"/>
<text text-anchor="middle" x="1690" y="-455.682" font-family="Times,serif" font-size="14.00">thread_id:92707</text>
<text text-anchor="middle" x="1690" y="-440.682" font-family="Times,serif" font-size="14.00">thread_name_list:&quot;xstartup&quot;,&quot;vncconfig&quot;</text>
<text text-anchor="middle" x="1690" y="-425.682" font-family="Times,serif" font-size="14.00">execve:1966:&quot;/usr/bin/vncconfig&quot;=0</text>
</g>
<!-- 92699&#45;&gt;92707 -->
<g id="edge13" class="edge"><title>92699&#45;&gt;92707</title>
<path fill="none" stroke="black" d="M2108.71,-653.67C2073.59,-635.152 2030.93,-614.246 1991,-598.891 1939.37,-579.041 1921.33,-588.844 1871,-565.891 1824.73,-544.791 1777.04,-512.531 1742.24,-486.697"/>
<polygon fill="black" stroke="black" points="1744.22,-483.812 1734.12,-480.617 1740.03,-489.414 1744.22,-483.812"/>
<text text-anchor="middle" x="1973" y="-577.691" font-family="Times,serif" font-size="14.00">1932</text>
</g>
<!-- 92708 -->
<g id="node16" class="node"><title>92708</title>
<ellipse fill="#ff6a6a" stroke="#ff6a6a" cx="2150" cy="-444.382" rx="267.073" ry="90.5193"/>
<text text-anchor="middle" x="2150" y="-493.182" font-family="Times,serif" font-size="14.00">thread_id:92708</text>
<text text-anchor="middle" x="2150" y="-478.182" font-family="Times,serif" font-size="14.00">thread_name_list:&quot;xstartup&quot;,&quot;x&#45;terminal&#45;emul&quot;,&quot;gnome&#45;terminal&quot;</text>
<text text-anchor="middle" x="2150" y="-463.182" font-family="Times,serif" font-size="14.00">execve:1964:&quot;/usr/bin/x&#45;terminal&#45;emulator&quot;=0</text>
<text text-anchor="middle" x="2150" y="-448.182" font-family="Times,serif" font-size="14.00">execve:2191:&quot;/usr/local/sbin/gnome&#45;terminal&quot;=&#45;1</text>
<text text-anchor="middle" x="2150" y="-433.182" font-family="Times,serif" font-size="14.00">execve:2192:&quot;/usr/local/bin/gnome&#45;terminal&quot;=&#45;1</text>
<text text-anchor="middle" x="2150" y="-418.182" font-family="Times,serif" font-size="14.00">execve:2194:&quot;/usr/sbin/gnome&#45;terminal&quot;=&#45;1</text>
<text text-anchor="middle" x="2150" y="-403.182" font-family="Times,serif" font-size="14.00">execve:2196:&quot;/usr/bin/gnome&#45;terminal&quot;=0</text>
<text text-anchor="middle" x="2150" y="-388.182" font-family="Times,serif" font-size="14.00">exit_code:8324:&quot;1&quot;</text>
</g>
<!-- 92699&#45;&gt;92708 -->
<g id="edge14" class="edge"><title>92699&#45;&gt;92708</title>
<path fill="none" stroke="black" d="M2178.42,-649.186C2174.32,-619.783 2168.89,-580.835 2163.87,-544.869"/>
<polygon fill="black" stroke="black" points="2167.32,-544.235 2162.47,-534.814 2160.38,-545.201 2167.32,-544.235"/>
<text text-anchor="middle" x="2184" y="-577.691" font-family="Times,serif" font-size="14.00">1935</text>
</g>
<!-- 92709 -->
<g id="node18" class="node"><title>92709</title>
<ellipse fill="#00cd00" stroke="#00cd00" cx="2985" cy="-444.382" rx="544.444" ry="48.1667"/>
<text text-anchor="middle" x="2985" y="-463.182" font-family="Times,serif" font-size="14.00">thread_id:92709</text>
<text text-anchor="middle" x="2985" y="-448.182" font-family="Times,serif" font-size="14.00">thread_name_list:&quot;xstartup&quot;,&quot;x&#45;window&#45;manage&quot;</text>
<text text-anchor="middle" x="2985" y="-433.182" font-family="Times,serif" font-size="14.00">execve:1960:&quot;/usr/bin/x&#45;window&#45;manager&quot;=0</text>
<text text-anchor="middle" x="2985" y="-418.182" font-family="Times,serif" font-size="14.00">write2:7211:&quot;2&lt;/home/elwin/.vnc/elwin&#45;virtual&#45;machine:1.log&gt;, &quot;Xlib: &#160;extension \&quot;XInputExtension\&quot; missing on display \&quot;:1\&quot;.\n&quot;, 60&quot;</text>
</g>
<!-- 92699&#45;&gt;92709 -->
<g id="edge15" class="edge"><title>92699&#45;&gt;92709</title>
<path fill="none" stroke="black" d="M2300.47,-660.169C2440.12,-616.35 2675.71,-542.428 2830.8,-493.767"/>
<polygon fill="black" stroke="black" points="2831.94,-497.077 2840.43,-490.744 2829.84,-490.398 2831.94,-497.077"/>
<text text-anchor="middle" x="2575" y="-577.691" font-family="Times,serif" font-size="14.00">1938</text>
</g>
<!-- 92706 -->
<g id="node14" class="node"><title>92706</title>
<ellipse fill="#c4c4c4" stroke="#c4c4c4" cx="1352" cy="-148.936" rx="120.417" ry="48.1667"/>
<text text-anchor="middle" x="1352" y="-167.736" font-family="Times,serif" font-size="14.00">thread_id:92706</text>
<text text-anchor="middle" x="1352" y="-152.736" font-family="Times,serif" font-size="14.00">thread_name_list:&quot;sh&quot;,&quot;cat&quot;</text>
<text text-anchor="middle" x="1352" y="-137.736" font-family="Times,serif" font-size="14.00">execve:1771:&quot;/bin/cat&quot;=0</text>
<text text-anchor="middle" x="1352" y="-122.736" font-family="Times,serif" font-size="14.00">exit_code:1815:&quot;0&quot;</text>
</g>
<!-- 92705&#45;&gt;92706 -->
<g id="edge16" class="edge"><title>92705&#45;&gt;92706</title>
<path fill="none" stroke="black" d="M1352,-396.235C1352,-344.942 1352,-262.909 1352,-207.764"/>
<polygon fill="black" stroke="black" points="1355.5,-207.453 1352,-197.453 1348.5,-207.453 1355.5,-207.453"/>
<text text-anchor="middle" x="1366" y="-324.672" font-family="Times,serif" font-size="14.00">1769</text>
</g>
<!-- 92718 -->
<g id="node17" class="node"><title>92718</title>
<ellipse fill="none" stroke="black" cx="2150" cy="-148.936" rx="186.853" ry="26.7407"/>
<text text-anchor="middle" x="2150" y="-152.736" font-family="Times,serif" font-size="14.00">thread_id:92718</text>
<text text-anchor="middle" x="2150" y="-137.736" font-family="Times,serif" font-size="14.00">thread_name_list:&quot;gnome&#45;terminal&quot;,&quot;gmain&quot;</text>
</g>
<!-- 92708&#45;&gt;92718 -->
<g id="edge17" class="edge"><title>92708&#45;&gt;92718</title>
<path fill="none" stroke="black" d="M2150,-353.744C2150,-297.46 2150,-227.899 2150,-186.321"/>
<polygon fill="black" stroke="black" points="2153.5,-186.127 2150,-176.127 2146.5,-186.127 2153.5,-186.127"/>
<text text-anchor="middle" x="2164" y="-324.672" font-family="Times,serif" font-size="14.00">6521</text>
</g>
<!-- 92719 -->
<g id="node19" class="node"><title>92719</title>
<ellipse fill="#ff6a6a" stroke="#ff6a6a" cx="2939" cy="-148.936" rx="497.606" ry="58.8803"/>
<text text-anchor="middle" x="2939" y="-175.236" font-family="Times,serif" font-size="14.00">thread_id:92719</text>
<text text-anchor="middle" x="2939" y="-160.236" font-family="Times,serif" font-size="14.00">thread_name_list:&quot;gnome&#45;terminal&quot;,&quot;gnome&#45;terminal.&quot;</text>
<text text-anchor="middle" x="2939" y="-145.236" font-family="Times,serif" font-size="14.00">execve:6597:&quot;/usr/bin/gnome&#45;terminal.real&quot;=0</text>
<text text-anchor="middle" x="2939" y="-130.236" font-family="Times,serif" font-size="14.00">write2:8229:&quot;2&lt;/home/elwin/.vnc/elwin&#45;virtual&#45;machine:1.log&gt;, &quot;Failed to parse arguments: Unknown option &#45;&#45;login\n&quot;, 50&quot;</text>
<text text-anchor="middle" x="2939" y="-115.236" font-family="Times,serif" font-size="14.00">exit_code:8236:&quot;1&quot;</text>
</g>
<!-- 92708&#45;&gt;92719 -->
<g id="edge18" class="edge"><title>92708&#45;&gt;92719</title>
<path fill="none" stroke="black" d="M2328.54,-376.978C2464.69,-326.34 2650.45,-257.254 2781.18,-208.631"/>
<polygon fill="black" stroke="black" points="2782.74,-211.786 2790.89,-205.02 2780.3,-205.225 2782.74,-211.786"/>
<text text-anchor="middle" x="2487" y="-324.672" font-family="Times,serif" font-size="14.00">6574</text>
</g>
<!-- 92720 -->
<g id="node20" class="node"><title>92720</title>
<ellipse fill="#ff6a6a" stroke="#ff6a6a" cx="3630" cy="-148.936" rx="168.997" ry="132.872"/>
<text text-anchor="middle" x="3630" y="-227.736" font-family="Times,serif" font-size="14.00">thread_id:92720</text>
<text text-anchor="middle" x="3630" y="-212.736" font-family="Times,serif" font-size="14.00">thread_name_list:&quot;x&#45;window&#45;manage&quot;</text>
<text text-anchor="middle" x="3630" y="-197.736" font-family="Times,serif" font-size="14.00">execve:7271:&quot;/usr/local/sbin/dcop&quot;=&#45;1</text>
<text text-anchor="middle" x="3630" y="-182.736" font-family="Times,serif" font-size="14.00">execve:7273:&quot;/usr/local/bin/dcop&quot;=&#45;1</text>
<text text-anchor="middle" x="3630" y="-167.736" font-family="Times,serif" font-size="14.00">execve:7275:&quot;/usr/sbin/dcop&quot;=&#45;1</text>
<text text-anchor="middle" x="3630" y="-152.736" font-family="Times,serif" font-size="14.00">execve:7277:&quot;/usr/bin/dcop&quot;=&#45;1</text>
<text text-anchor="middle" x="3630" y="-137.736" font-family="Times,serif" font-size="14.00">execve:7279:&quot;/sbin/dcop&quot;=&#45;1</text>
<text text-anchor="middle" x="3630" y="-122.736" font-family="Times,serif" font-size="14.00">execve:7281:&quot;/bin/dcop&quot;=&#45;1</text>
<text text-anchor="middle" x="3630" y="-107.736" font-family="Times,serif" font-size="14.00">execve:7283:&quot;/usr/games/dcop&quot;=&#45;1</text>
<text text-anchor="middle" x="3630" y="-92.7361" font-family="Times,serif" font-size="14.00">execve:7285:&quot;/usr/local/games/dcop&quot;=&#45;1</text>
<text text-anchor="middle" x="3630" y="-77.7361" font-family="Times,serif" font-size="14.00">execve:7287:&quot;/snap/bin/dcop&quot;=&#45;1</text>
<text text-anchor="middle" x="3630" y="-62.7361" font-family="Times,serif" font-size="14.00">exit_code:7293:&quot;1&quot;</text>
</g>
<!-- 92709&#45;&gt;92720 -->
<g id="edge19" class="edge"><title>92709&#45;&gt;92720</title>
<path fill="none" stroke="black" d="M3215.28,-400.751C3292.56,-380.772 3377.26,-352.394 3449,-312.872 3474.01,-299.093 3498.42,-281.244 3520.81,-262.432"/>
<polygon fill="black" stroke="black" points="3523.31,-264.898 3528.64,-255.742 3518.77,-259.576 3523.31,-264.898"/>
<text text-anchor="middle" x="3440" y="-324.672" font-family="Times,serif" font-size="14.00">7216</text>
</g>
</g>
</svg>
