<?xml version="1.0" encoding="UTF-8" standalone="no"?>
<!DOCTYPE svg PUBLIC "-//W3C//DTD SVG 1.1//EN"
 "http://www.w3.org/Graphics/SVG/1.1/DTD/svg11.dtd">
<!-- Generated by graphviz version 2.38.0 (20140413.2041)
 -->
<!-- Title: abc Pages: 1 -->
<svg width="836pt" height="182pt"
 viewBox="0.00 0.00 836.00 182.00" xmlns="http://www.w3.org/2000/svg" xmlns:xlink="http://www.w3.org/1999/xlink">
<g id="graph0" class="graph" transform="scale(1 1) rotate(0) translate(4 178)">
<title>abc</title>
<polygon fill="white" stroke="none" points="-4,4 -4,-178 832,-178 832,4 -4,4"/>
<g id="clust1" class="cluster"><title>cluster_92700</title>
<polygon fill="none" stroke="blue" points="8,-91 8,-166 244,-166 244,-91 8,-91"/>
<text text-anchor="middle" x="126" y="-150.8" font-family="Times,serif" font-size="14.00">process_id:92700</text>
</g>
<g id="clust2" class="cluster"><title>cluster_92697</title>
<polygon fill="none" stroke="blue" points="284,-8 284,-83 468,-83 468,-8 284,-8"/>
<text text-anchor="middle" x="376" y="-67.8" font-family="Times,serif" font-size="14.00">process_id:92697</text>
</g>
<g id="clust3" class="cluster"><title>cluster_92707</title>
<polygon fill="none" stroke="blue" points="252,-91 252,-166 500,-166 500,-91 252,-91"/>
<text text-anchor="middle" x="376" y="-150.8" font-family="Times,serif" font-size="14.00">process_id:92707</text>
</g>
<g id="clust4" class="cluster"><title>cluster_92709</title>
<polygon fill="none" stroke="blue" points="508,-91 508,-166 820,-166 820,-91 508,-91"/>
<text text-anchor="middle" x="664" y="-150.8" font-family="Times,serif" font-size="14.00">process_id:92709</text>
</g>
<!-- 92700 -->
<g id="node1" class="node"><title>92700</title>
<ellipse fill="none" stroke="black" cx="126" cy="-117" rx="109.681" ry="18"/>
<text text-anchor="middle" x="126" y="-113.3" font-family="Times,serif" font-size="14.00">92700 &quot;xstartup&quot;,&quot;xsetroot&quot;</text>
</g>
<!-- 92697 -->
<g id="node2" class="node"><title>92697</title>
<ellipse fill="none" stroke="black" cx="376" cy="-34" rx="84.485" ry="18"/>
<text text-anchor="middle" x="376" y="-30.3" font-family="Times,serif" font-size="14.00">92697 &quot;sh&quot;,&quot;Xvnc4&quot;</text>
</g>
<!-- 92700&#45;&gt;92697 -->
<g id="edge1" class="edge"><title>92700&#45;&gt;92697</title>
<path fill="none" stroke="purple" d="M173.317,-100.669C215.562,-86.9819 277.419,-66.9401 321.674,-52.6016"/>
<polygon fill="purple" stroke="purple" points="322.962,-55.8634 331.397,-49.4514 320.805,-49.2042 322.962,-55.8634"/>
</g>
<!-- 92707 -->
<g id="node3" class="node"><title>92707</title>
<ellipse fill="none" stroke="black" cx="376" cy="-117" rx="116.18" ry="18"/>
<text text-anchor="middle" x="376" y="-113.3" font-family="Times,serif" font-size="14.00">92707 &quot;xstartup&quot;,&quot;vncconfig&quot;</text>
</g>
<!-- 92707&#45;&gt;92697 -->
<g id="edge2" class="edge"><title>92707&#45;&gt;92697</title>
<path fill="none" stroke="purple" d="M376,-98.822C376,-88.1903 376,-74.306 376,-62.2035"/>
<polygon fill="purple" stroke="purple" points="379.5,-62.1532 376,-52.1533 372.5,-62.1533 379.5,-62.1532"/>
</g>
<!-- 92709 -->
<g id="node4" class="node"><title>92709</title>
<ellipse fill="none" stroke="black" cx="664" cy="-117" rx="147.574" ry="18"/>
<text text-anchor="middle" x="664" y="-113.3" font-family="Times,serif" font-size="14.00">92709 &quot;xstartup&quot;,&quot;x&#45;window&#45;manage&quot;</text>
</g>
<!-- 92709&#45;&gt;92697 -->
<g id="edge3" class="edge"><title>92709&#45;&gt;92697</title>
<path fill="none" stroke="purple" d="M608.129,-100.286C558.289,-86.2688 485.563,-65.8145 434.839,-51.5485"/>
<polygon fill="purple" stroke="purple" points="435.575,-48.1198 425.001,-48.7816 433.68,-54.8584 435.575,-48.1198"/>
</g>
</g>
</svg>
