<?xml version="1.0" encoding="UTF-8" standalone="no"?>
<!DOCTYPE svg PUBLIC "-//W3C//DTD SVG 1.1//EN"
 "http://www.w3.org/Graphics/SVG/1.1/DTD/svg11.dtd">
<!-- Generated by graphviz version 2.38.0 (20140413.2041)
 -->
<!-- Title: abc Pages: 1 -->
<svg width="4048pt" height="431pt"
 viewBox="0.00 0.00 4048.00 431.00" xmlns="http://www.w3.org/2000/svg" xmlns:xlink="http://www.w3.org/1999/xlink">
<g id="graph0" class="graph" transform="scale(1 1) rotate(0) translate(4 427)">
<title>abc</title>
<polygon fill="white" stroke="none" points="-4,4 -4,-427 4044,-427 4044,4 -4,4"/>
<g id="clust1" class="cluster"><title>cluster_302</title>
<polygon fill="none" stroke="blue" points="938,-257 938,-332 1136,-332 1136,-257 938,-257"/>
<text text-anchor="middle" x="1037" y="-316.8" font-family="Times,serif" font-size="14.00">process_id:302</text>
</g>
<g id="clust2" class="cluster"><title>cluster_856</title>
<polygon fill="none" stroke="blue" points="3446,-257 3446,-332 3626,-332 3626,-257 3446,-257"/>
<text text-anchor="middle" x="3536" y="-316.8" font-family="Times,serif" font-size="14.00">process_id:856</text>
</g>
<g id="clust3" class="cluster"><title>cluster_871</title>
<polygon fill="none" stroke="blue" points="2716,-174 2716,-249 2926,-249 2926,-174 2716,-174"/>
<text text-anchor="middle" x="2821" y="-233.8" font-family="Times,serif" font-size="14.00">process_id:871</text>
</g>
<g id="clust4" class="cluster"><title>cluster_872</title>
<polygon fill="none" stroke="blue" points="2934,-174 2934,-249 3128,-249 3128,-174 2934,-174"/>
<text text-anchor="middle" x="3031" y="-233.8" font-family="Times,serif" font-size="14.00">process_id:872</text>
</g>
<g id="clust5" class="cluster"><title>cluster_876</title>
<polygon fill="none" stroke="blue" points="3136,-174 3136,-249 3340,-249 3340,-174 3136,-174"/>
<text text-anchor="middle" x="3238" y="-233.8" font-family="Times,serif" font-size="14.00">process_id:876</text>
</g>
<g id="clust6" class="cluster"><title>cluster_878</title>
<polygon fill="none" stroke="blue" points="3348,-174 3348,-249 3532,-249 3532,-174 3348,-174"/>
<text text-anchor="middle" x="3440" y="-233.8" font-family="Times,serif" font-size="14.00">process_id:878</text>
</g>
<g id="clust7" class="cluster"><title>cluster_930</title>
<polygon fill="none" stroke="blue" points="3540,-174 3540,-249 3722,-249 3722,-174 3540,-174"/>
<text text-anchor="middle" x="3631" y="-233.8" font-family="Times,serif" font-size="14.00">process_id:930</text>
</g>
<g id="clust8" class="cluster"><title>cluster_935</title>
<polygon fill="none" stroke="blue" points="3730,-174 3730,-249 3864,-249 3864,-174 3730,-174"/>
<text text-anchor="middle" x="3797" y="-233.8" font-family="Times,serif" font-size="14.00">process_id:935</text>
</g>
<g id="clust9" class="cluster"><title>cluster_1303</title>
<polygon fill="none" stroke="blue" points="3872,-174 3872,-249 4032,-249 4032,-174 3872,-174"/>
<text text-anchor="middle" x="3952" y="-233.8" font-family="Times,serif" font-size="14.00">process_id:1303</text>
</g>
<g id="clust10" class="cluster"><title>cluster_1453</title>
<polygon fill="none" stroke="blue" points="1791,-91 1791,-166 2044,-166 2044,-91 1791,-91"/>
<text text-anchor="middle" x="1917.5" y="-150.8" font-family="Times,serif" font-size="14.00">process_id:1453</text>
</g>
<g id="clust11" class="cluster"><title>cluster_1455</title>
<polygon fill="none" stroke="blue" points="1732,-8 1732,-83 2102,-83 2102,-8 1732,-8"/>
<text text-anchor="middle" x="1917" y="-67.8" font-family="Times,serif" font-size="14.00">process_id:1455</text>
</g>
<g id="clust12" class="cluster"><title>cluster_1948</title>
<polygon fill="none" stroke="blue" points="3392,-340 3392,-415 3680,-415 3680,-340 3392,-340"/>
<text text-anchor="middle" x="3536" y="-399.8" font-family="Times,serif" font-size="14.00">process_id:1948</text>
</g>
<g id="clust13" class="cluster"><title>cluster_1998</title>
<polygon fill="none" stroke="blue" points="1202,-340 1202,-415 2050,-415 2050,-340 1202,-340"/>
<text text-anchor="middle" x="1626" y="-399.8" font-family="Times,serif" font-size="14.00">process_id:1998</text>
</g>
<g id="clust14" class="cluster"><title>cluster_1999</title>
<polygon fill="none" stroke="blue" points="1505,-257 1505,-332 1747,-332 1747,-257 1505,-257"/>
<text text-anchor="middle" x="1626" y="-316.8" font-family="Times,serif" font-size="14.00">process_id:1999</text>
</g>
<g id="clust20" class="cluster"><title>cluster_2005</title>
<polygon fill="none" stroke="blue" points="1559,-174 1559,-249 2036,-249 2036,-174 1559,-174"/>
<text text-anchor="middle" x="1797.5" y="-233.8" font-family="Times,serif" font-size="14.00">process_id:2005</text>
</g>
<g id="clust26" class="cluster"><title>cluster_2012</title>
<polygon fill="none" stroke="blue" points="2058,-340 2058,-415 2282,-415 2282,-340 2058,-340"/>
<text text-anchor="middle" x="2170" y="-399.8" font-family="Times,serif" font-size="14.00">process_id:2012</text>
</g>
<g id="clust31" class="cluster"><title>cluster_2021</title>
<polygon fill="none" stroke="blue" points="2290,-340 2290,-415 2520,-415 2520,-340 2290,-340"/>
<text text-anchor="middle" x="2405" y="-399.8" font-family="Times,serif" font-size="14.00">process_id:2021</text>
</g>
<g id="clust35" class="cluster"><title>cluster_2029</title>
<polygon fill="none" stroke="blue" points="2528,-340 2528,-415 2758,-415 2758,-340 2528,-340"/>
<text text-anchor="middle" x="2643" y="-399.8" font-family="Times,serif" font-size="14.00">process_id:2029</text>
</g>
<g id="clust50" class="cluster"><title>cluster_2052</title>
<polygon fill="none" stroke="blue" points="2766,-340 2766,-415 2944,-415 2944,-340 2766,-340"/>
<text text-anchor="middle" x="2855" y="-399.8" font-family="Times,serif" font-size="14.00">process_id:2052</text>
</g>
<g id="clust51" class="cluster"><title>cluster_2053</title>
<polygon fill="none" stroke="blue" points="627,-257 627,-332 833,-332 833,-257 627,-257"/>
<text text-anchor="middle" x="730" y="-316.8" font-family="Times,serif" font-size="14.00">process_id:2053</text>
</g>
<g id="clust61" class="cluster"><title>cluster_2072</title>
<polygon fill="none" stroke="blue" points="204,-340 204,-415 556,-415 556,-340 204,-340"/>
<text text-anchor="middle" x="380" y="-399.8" font-family="Times,serif" font-size="14.00">process_id:2072</text>
</g>
<g id="clust62" class="cluster"><title>cluster_2093</title>
<polygon fill="none" stroke="blue" points="8,-340 8,-415 196,-415 196,-340 8,-340"/>
<text text-anchor="middle" x="102" y="-399.8" font-family="Times,serif" font-size="14.00">process_id:2093</text>
</g>
<g id="clust63" class="cluster"><title>cluster_2094</title>
<polygon fill="none" stroke="blue" points="564,-340 564,-415 1194,-415 1194,-340 564,-340"/>
<text text-anchor="middle" x="879" y="-399.8" font-family="Times,serif" font-size="14.00">process_id:2094</text>
</g>
<g id="clust64" class="cluster"><title>cluster_2115</title>
<polygon fill="none" stroke="blue" points="752,-91 752,-166 1084,-166 1084,-91 752,-91"/>
<text text-anchor="middle" x="918" y="-150.8" font-family="Times,serif" font-size="14.00">process_id:2115</text>
</g>
<g id="clust65" class="cluster"><title>cluster_2124</title>
<polygon fill="none" stroke="blue" points="687,-174 687,-249 875,-249 875,-174 687,-174"/>
<text text-anchor="middle" x="781" y="-233.8" font-family="Times,serif" font-size="14.00">process_id:2124</text>
</g>
<g id="clust66" class="cluster"><title>cluster_2125</title>
<polygon fill="none" stroke="blue" points="883,-174 883,-249 1191,-249 1191,-174 883,-174"/>
<text text-anchor="middle" x="1037" y="-233.8" font-family="Times,serif" font-size="14.00">process_id:2125</text>
</g>
<g id="clust67" class="cluster"><title>cluster_2138</title>
<polygon fill="none" stroke="blue" points="2952,-340 2952,-415 3164,-415 3164,-340 2952,-340"/>
<text text-anchor="middle" x="3058" y="-399.8" font-family="Times,serif" font-size="14.00">process_id:2138</text>
</g>
<g id="clust68" class="cluster"><title>cluster_2155</title>
<polygon fill="none" stroke="blue" points="1199,-174 1199,-249 1551,-249 1551,-174 1199,-174"/>
<text text-anchor="middle" x="1375" y="-233.8" font-family="Times,serif" font-size="14.00">process_id:2155</text>
</g>
<g id="clust69" class="cluster"><title>cluster_2191</title>
<polygon fill="none" stroke="blue" points="3172,-340 3172,-415 3384,-415 3384,-340 3172,-340"/>
<text text-anchor="middle" x="3278" y="-399.8" font-family="Times,serif" font-size="14.00">process_id:2191</text>
</g>
<!-- 302 -->
<g id="node1" class="node"><title>302</title>
<ellipse fill="none" stroke="black" cx="1037" cy="-283" rx="90.9839" ry="18"/>
<text text-anchor="middle" x="1037" y="-279.3" font-family="Times,serif" font-size="14.00">302 &quot;systemd&#45;journal&quot;</text>
</g>
<!-- 2094 -->
<g id="node26" class="node"><title>2094</title>
<ellipse fill="none" stroke="black" cx="1037" cy="-366" rx="149.473" ry="18"/>
<text text-anchor="middle" x="1037" y="-362.3" font-family="Times,serif" font-size="14.00">2094 &quot;dbus&#45;daemon&quot;,&quot;at&#45;spi&#45;bus&#45;laun&quot;</text>
</g>
<!-- 302&#45;&gt;2094 -->
<g id="edge34" class="edge"><title>302&#45;&gt;2094</title>
<path fill="none" stroke="purple" d="M1037,-301.153C1037,-311.78 1037,-325.663 1037,-337.768"/>
<polygon fill="purple" stroke="purple" points="1033.5,-337.822 1037,-347.822 1040.5,-337.822 1033.5,-337.822"/>
</g>
<!-- 2125 -->
<g id="node30" class="node"><title>2125</title>
<ellipse fill="none" stroke="black" cx="1037" cy="-200" rx="145.674" ry="18"/>
<text text-anchor="middle" x="1037" y="-196.3" font-family="Times,serif" font-size="14.00">2125 &quot;dbus&#45;daemon&quot;,&quot;at&#45;spi2&#45;registr&quot;</text>
</g>
<!-- 302&#45;&gt;2125 -->
<g id="edge35" class="edge"><title>302&#45;&gt;2125</title>
<path fill="none" stroke="purple" d="M1031.36,-264.822C1030.21,-254.19 1029.95,-240.306 1030.58,-228.204"/>
<polygon fill="purple" stroke="purple" points="1034.08,-228.395 1031.37,-218.153 1027.1,-227.851 1034.08,-228.395"/>
</g>
<!-- 302&#45;&gt;2125 -->
<g id="edge36" class="edge"><title>302&#45;&gt;2125</title>
<path fill="none" stroke="purple" d="M1042.64,-264.822C1043.79,-254.19 1044.05,-240.306 1043.42,-228.204"/>
<polygon fill="purple" stroke="purple" points="1046.9,-227.851 1042.63,-218.153 1039.92,-228.395 1046.9,-227.851"/>
</g>
<!-- 856 -->
<g id="node2" class="node"><title>856</title>
<ellipse fill="none" stroke="black" cx="3536" cy="-283" rx="81.7856" ry="18"/>
<text text-anchor="middle" x="3536" y="-279.3" font-family="Times,serif" font-size="14.00">856 &quot;dbus&#45;daemon&quot;</text>
</g>
<!-- 871 -->
<g id="node3" class="node"><title>871</title>
<ellipse fill="none" stroke="black" cx="2821" cy="-200" rx="96.6831" ry="18"/>
<text text-anchor="middle" x="2821" y="-196.3" font-family="Times,serif" font-size="14.00">871 &quot;NetworkManager&quot;</text>
</g>
<!-- 856&#45;&gt;871 -->
<g id="edge43" class="edge"><title>856&#45;&gt;871</title>
<path fill="none" stroke="purple" d="M3454.51,-281.179C3312.88,-279.148 3027.16,-272.223 2930,-249 2905.41,-243.123 2879.44,-231.909 2859.03,-221.798"/>
<polygon fill="purple" stroke="purple" points="2860.56,-218.653 2850.06,-217.253 2857.4,-224.897 2860.56,-218.653"/>
</g>
<!-- 872 -->
<g id="node4" class="node"><title>872</title>
<ellipse fill="none" stroke="black" cx="3031" cy="-200" rx="89.0842" ry="18"/>
<text text-anchor="middle" x="3031" y="-196.3" font-family="Times,serif" font-size="14.00">872 &quot;systemd&#45;logind&quot;</text>
</g>
<!-- 856&#45;&gt;872 -->
<g id="edge38" class="edge"><title>856&#45;&gt;872</title>
<path fill="none" stroke="purple" d="M3455.97,-278.884C3356.04,-274.399 3191.04,-264.869 3132,-249 3109.55,-242.965 3086,-232.071 3067.29,-222.185"/>
<polygon fill="purple" stroke="purple" points="3068.71,-218.975 3058.25,-217.289 3065.38,-225.13 3068.71,-218.975"/>
</g>
<!-- 876 -->
<g id="node5" class="node"><title>876</title>
<ellipse fill="none" stroke="black" cx="3238" cy="-200" rx="94.4839" ry="18"/>
<text text-anchor="middle" x="3238" y="-196.3" font-family="Times,serif" font-size="14.00">876 &quot;ModemManager&quot;</text>
</g>
<!-- 856&#45;&gt;876 -->
<g id="edge39" class="edge"><title>856&#45;&gt;876</title>
<path fill="none" stroke="purple" d="M3464.32,-274.099C3427.79,-268.967 3382.96,-260.955 3344,-249 3321.26,-242.023 3297.02,-231.311 3277.46,-221.776"/>
<polygon fill="purple" stroke="purple" points="3278.78,-218.522 3268.27,-217.21 3275.67,-224.792 3278.78,-218.522"/>
</g>
<!-- 878 -->
<g id="node6" class="node"><title>878</title>
<ellipse fill="none" stroke="black" cx="3440" cy="-200" rx="84.485" ry="18"/>
<text text-anchor="middle" x="3440" y="-196.3" font-family="Times,serif" font-size="14.00">878 &quot;avahi&#45;daemon&quot;</text>
</g>
<!-- 856&#45;&gt;878 -->
<g id="edge37" class="edge"><title>856&#45;&gt;878</title>
<path fill="none" stroke="purple" d="M3516.11,-265.217C3502.08,-253.379 3483.1,-237.366 3467.61,-224.293"/>
<polygon fill="purple" stroke="purple" points="3469.77,-221.535 3459.87,-217.762 3465.25,-226.886 3469.77,-221.535"/>
</g>
<!-- 930 -->
<g id="node7" class="node"><title>930</title>
<ellipse fill="none" stroke="black" cx="3631" cy="-200" rx="83.3857" ry="18"/>
<text text-anchor="middle" x="3631" y="-196.3" font-family="Times,serif" font-size="14.00">930 &quot;cups&#45;browsed&quot;</text>
</g>
<!-- 856&#45;&gt;930 -->
<g id="edge41" class="edge"><title>856&#45;&gt;930</title>
<path fill="none" stroke="purple" d="M3550.09,-265.217C3562.95,-253.111 3582.09,-236.64 3598.6,-223.41"/>
<polygon fill="purple" stroke="purple" points="3600.78,-226.152 3606.46,-217.209 3596.44,-220.657 3600.78,-226.152"/>
</g>
<!-- 856&#45;&gt;930 -->
<g id="edge42" class="edge"><title>856&#45;&gt;930</title>
<path fill="none" stroke="purple" d="M3560.52,-265.803C3575.58,-254.117 3594.54,-238.147 3609.09,-224.985"/>
<polygon fill="purple" stroke="purple" points="3611.69,-227.355 3616.67,-218.006 3606.94,-222.206 3611.69,-227.355"/>
</g>
<!-- 935 -->
<g id="node8" class="node"><title>935</title>
<ellipse fill="none" stroke="black" cx="3797" cy="-200" rx="59.2899" ry="18"/>
<text text-anchor="middle" x="3797" y="-196.3" font-family="Times,serif" font-size="14.00">935 &quot;polkitd&quot;</text>
</g>
<!-- 856&#45;&gt;935 -->
<g id="edge40" class="edge"><title>856&#45;&gt;935</title>
<path fill="none" stroke="purple" d="M3612,-276.215C3647.59,-271.658 3689.98,-263.521 3726,-249 3741.59,-242.717 3757.24,-232.635 3769.86,-223.33"/>
<polygon fill="purple" stroke="purple" points="3772.25,-225.912 3778.08,-217.068 3768.01,-220.344 3772.25,-225.912"/>
</g>
<!-- 1303 -->
<g id="node9" class="node"><title>1303</title>
<ellipse fill="none" stroke="black" cx="3952" cy="-200" rx="72.2875" ry="18"/>
<text text-anchor="middle" x="3952" y="-196.3" font-family="Times,serif" font-size="14.00">1303 &quot;whoopsie&quot;</text>
</g>
<!-- 856&#45;&gt;1303 -->
<g id="edge44" class="edge"><title>856&#45;&gt;1303</title>
<path fill="none" stroke="purple" d="M3614.77,-277.966C3697.72,-273.044 3822.48,-263.537 3868,-249 3886.73,-243.02 3905.89,-232.476 3921.17,-222.791"/>
<polygon fill="purple" stroke="purple" points="3923.23,-225.627 3929.69,-217.229 3919.4,-219.766 3923.23,-225.627"/>
</g>
<!-- 1938 -->
<g id="node10" class="node"><title>1938</title>
<ellipse fill="none" stroke="black" cx="1981" cy="-117" rx="54.6905" ry="18"/>
<text text-anchor="middle" x="1981" y="-113.3" font-family="Times,serif" font-size="14.00">1938 &quot;xrdp&quot;</text>
</g>
<!-- 1455 -->
<g id="node12" class="node"><title>1455</title>
<ellipse fill="none" stroke="black" cx="2010" cy="-34" rx="83.6854" ry="18"/>
<text text-anchor="middle" x="2010" y="-30.3" font-family="Times,serif" font-size="14.00">1455 &quot;xrdp&#45;sesman&quot;</text>
</g>
<!-- 1938&#45;&gt;1455 -->
<g id="edge1" class="edge"><title>1938&#45;&gt;1455</title>
<path fill="none" stroke="purple" d="M1987.15,-98.822C1990.99,-88.0829 1996.03,-74.0252 2000.39,-61.8374"/>
<polygon fill="purple" stroke="purple" points="2003.78,-62.7478 2003.86,-52.1533 1997.19,-60.3883 2003.78,-62.7478"/>
</g>
<!-- 1453 -->
<g id="node11" class="node"><title>1453</title>
<ellipse fill="none" stroke="black" cx="1854" cy="-117" rx="54.6905" ry="18"/>
<text text-anchor="middle" x="1854" y="-113.3" font-family="Times,serif" font-size="14.00">1453 &quot;xrdp&quot;</text>
</g>
<!-- 2174 -->
<g id="node13" class="node"><title>2174</title>
<ellipse fill="none" stroke="black" cx="1824" cy="-34" rx="83.6854" ry="18"/>
<text text-anchor="middle" x="1824" y="-30.3" font-family="Times,serif" font-size="14.00">2174 &quot;xrdp&#45;sesman&quot;</text>
</g>
<!-- 2174&#45;&gt;1453 -->
<g id="edge32" class="edge"><title>2174&#45;&gt;1453</title>
<path fill="none" stroke="purple" d="M1830.35,-52.1533C1834.33,-62.8872 1839.53,-76.9438 1844.05,-89.1345"/>
<polygon fill="purple" stroke="purple" points="1840.88,-90.6601 1847.64,-98.822 1847.45,-88.2289 1840.88,-90.6601"/>
</g>
<!-- 1948 -->
<g id="node14" class="node"><title>1948</title>
<ellipse fill="none" stroke="black" cx="3536" cy="-366" rx="135.676" ry="18"/>
<text text-anchor="middle" x="3536" y="-362.3" font-family="Times,serif" font-size="14.00">1948 &quot;xrdp&#45;sesman&quot;,&quot;xrdp&#45;sessvc&quot;</text>
</g>
<!-- 1948&#45;&gt;856 -->
<g id="edge2" class="edge"><title>1948&#45;&gt;856</title>
<path fill="none" stroke="purple" d="M3536,-347.822C3536,-337.19 3536,-323.306 3536,-311.204"/>
<polygon fill="purple" stroke="purple" points="3539.5,-311.153 3536,-301.153 3532.5,-311.153 3539.5,-311.153"/>
</g>
<!-- 1998 -->
<g id="node15" class="node"><title>1998</title>
<ellipse fill="none" stroke="black" cx="1626" cy="-366" rx="415.926" ry="18"/>
<text text-anchor="middle" x="1626" y="-362.3" font-family="Times,serif" font-size="14.00">1998 &quot;xrdp&#45;sesman&quot;,&quot;startwm.sh&quot;,&quot;ssh&#45;agent&quot;,&quot;dbus&#45;launch&quot;,&quot;im&#45;launch&quot;,&quot;x&#45;session&#45;manag&quot;,&quot;gnome&#45;session&#45;b&quot;</text>
</g>
<!-- 1998&#45;&gt;302 -->
<g id="edge4" class="edge"><title>1998&#45;&gt;302</title>
<path fill="none" stroke="purple" d="M1507.52,-348.706C1392.38,-332.872 1220.56,-309.243 1119.53,-295.349"/>
<polygon fill="purple" stroke="purple" points="1119.76,-291.848 1109.37,-293.953 1118.8,-298.783 1119.76,-291.848"/>
</g>
<!-- 1999 -->
<g id="node16" class="node"><title>1999</title>
<ellipse fill="none" stroke="black" cx="1626" cy="-283" rx="113.18" ry="18"/>
<text text-anchor="middle" x="1626" y="-279.3" font-family="Times,serif" font-size="14.00">1999 &quot;xrdp&#45;sesman&quot;,&quot;Xvnc&quot;</text>
</g>
<!-- 1998&#45;&gt;1999 -->
<g id="edge3" class="edge"><title>1998&#45;&gt;1999</title>
<path fill="none" stroke="purple" d="M1626,-347.822C1626,-337.19 1626,-323.306 1626,-311.204"/>
<polygon fill="purple" stroke="purple" points="1629.5,-311.153 1626,-301.153 1622.5,-311.153 1629.5,-311.153"/>
</g>
<!-- 1999&#45;&gt;1453 -->
<g id="edge5" class="edge"><title>1999&#45;&gt;1453</title>
<path fill="none" stroke="purple" d="M1738.36,-280.732C1853.92,-278.232 2019.84,-270.834 2040,-249 2062.61,-224.511 2062.79,-198.323 2040,-174 2030.64,-164.006 1929.83,-170.799 1917,-166 1902.39,-160.533 1888.35,-150.483 1877.25,-140.987"/>
<polygon fill="purple" stroke="purple" points="1879.51,-138.308 1869.72,-134.243 1874.84,-143.522 1879.51,-138.308"/>
</g>
<!-- 2005 -->
<g id="node17" class="node"><title>2005</title>
<ellipse fill="none" stroke="black" cx="1892" cy="-200" rx="136.476" ry="18"/>
<text text-anchor="middle" x="1892" y="-196.3" font-family="Times,serif" font-size="14.00">2005 &quot;xrdp&#45;sessvc&quot;,&quot;xrdp&#45;chansrv&quot;</text>
</g>
<!-- 1999&#45;&gt;2005 -->
<g id="edge10" class="edge"><title>1999&#45;&gt;2005</title>
<path fill="none" stroke="purple" d="M1681.73,-267.289C1702.02,-261.769 1725.11,-255.303 1746,-249 1775.8,-240.009 1808.77,-229.243 1835.82,-220.188"/>
<polygon fill="purple" stroke="purple" points="1837.14,-223.438 1845.5,-216.936 1834.91,-216.802 1837.14,-223.438"/>
</g>
<!-- 1999&#45;&gt;2125 -->
<g id="edge6" class="edge"><title>1999&#45;&gt;2125</title>
<path fill="none" stroke="purple" d="M1513.88,-280.358C1424.3,-277.461 1296.08,-269.678 1186,-249 1150.94,-242.414 1112.63,-230.89 1083.55,-220.784"/>
<polygon fill="purple" stroke="purple" points="1084.66,-217.463 1074.06,-217.421 1082.32,-224.061 1084.66,-217.463"/>
</g>
<!-- 1999&#45;&gt;2125 -->
<g id="edge7" class="edge"><title>1999&#45;&gt;2125</title>
<path fill="none" stroke="purple" d="M1514.58,-279.866C1429.03,-276.618 1308.36,-268.604 1204,-249 1168.12,-242.261 1128.85,-230.351 1097.32,-220.082"/>
<polygon fill="purple" stroke="purple" points="1098.4,-216.749 1087.8,-216.955 1096.21,-223.4 1098.4,-216.749"/>
</g>
<!-- 2155 -->
<g id="node32" class="node"><title>2155</title>
<ellipse fill="none" stroke="black" cx="1375" cy="-200" rx="168.17" ry="18"/>
<text text-anchor="middle" x="1375" y="-196.3" font-family="Times,serif" font-size="14.00">2155 &quot;gnome&#45;session&#45;b&quot;,&quot;gnome&#45;session&#45;c&quot;</text>
</g>
<!-- 1999&#45;&gt;2155 -->
<g id="edge8" class="edge"><title>1999&#45;&gt;2155</title>
<path fill="none" stroke="purple" d="M1573.99,-266.954C1531.84,-253.881 1472.73,-234.858 1429.85,-220.597"/>
<polygon fill="purple" stroke="purple" points="1430.73,-217.203 1420.14,-217.357 1428.52,-223.843 1430.73,-217.203"/>
</g>
<!-- 1999&#45;&gt;2155 -->
<g id="edge9" class="edge"><title>1999&#45;&gt;2155</title>
<path fill="none" stroke="purple" d="M1582.78,-266.286C1543.45,-253.085 1484.97,-234.175 1440.02,-220.101"/>
<polygon fill="purple" stroke="purple" points="1440.95,-216.724 1430.36,-217.085 1438.86,-223.406 1440.95,-216.724"/>
</g>
<!-- 2008 -->
<g id="node18" class="node"><title>2008</title>
<ellipse fill="none" stroke="black" cx="1652" cy="-200" rx="85.2851" ry="18"/>
<text text-anchor="middle" x="1652" y="-196.3" font-family="Times,serif" font-size="14.00">2008 &quot;xrdp&#45;chansrv&quot;</text>
</g>
<!-- 2008&#45;&gt;1453 -->
<g id="edge11" class="edge"><title>2008&#45;&gt;1453</title>
<path fill="none" stroke="purple" d="M1689.99,-183.765C1724.36,-169.983 1774.94,-149.703 1810.83,-135.313"/>
<polygon fill="purple" stroke="purple" points="1812.55,-138.391 1820.53,-131.42 1809.95,-131.894 1812.55,-138.391"/>
</g>
<!-- 2012 -->
<g id="node19" class="node"><title>2012</title>
<ellipse fill="none" stroke="black" cx="2170" cy="-366" rx="103.982" ry="18"/>
<text text-anchor="middle" x="2170" y="-362.3" font-family="Times,serif" font-size="14.00">2012 &quot;startwm.sh&quot;,&quot;xrdb&quot;</text>
</g>
<!-- 2012&#45;&gt;1999 -->
<g id="edge12" class="edge"><title>2012&#45;&gt;1999</title>
<path fill="none" stroke="purple" d="M2110.57,-351.211C2092.47,-347.276 2072.47,-343.194 2054,-340 1942.84,-320.782 1814.41,-304.802 1727.46,-294.896"/>
<polygon fill="purple" stroke="purple" points="1727.67,-291.397 1717.33,-293.749 1726.88,-298.352 1727.67,-291.397"/>
</g>
<!-- 2021 -->
<g id="node20" class="node"><title>2021</title>
<ellipse fill="none" stroke="black" cx="2405" cy="-366" rx="106.681" ry="18"/>
<text text-anchor="middle" x="2405" y="-362.3" font-family="Times,serif" font-size="14.00">2021 &quot;startwm.sh&quot;,&quot;xhost&quot;</text>
</g>
<!-- 2021&#45;&gt;1999 -->
<g id="edge13" class="edge"><title>2021&#45;&gt;1999</title>
<path fill="none" stroke="purple" d="M2345.63,-351.036C2326.67,-346.977 2305.53,-342.869 2286,-340 2096.94,-312.227 1875.24,-296.914 1742.93,-289.588"/>
<polygon fill="purple" stroke="purple" points="1742.95,-286.083 1732.77,-289.031 1742.56,-293.073 1742.95,-286.083"/>
</g>
<!-- 2029 -->
<g id="node21" class="node"><title>2029</title>
<ellipse fill="none" stroke="black" cx="2643" cy="-366" rx="106.681" ry="18"/>
<text text-anchor="middle" x="2643" y="-362.3" font-family="Times,serif" font-size="14.00">2029 &quot;startwm.sh&quot;,&quot;xhost&quot;</text>
</g>
<!-- 2029&#45;&gt;1999 -->
<g id="edge14" class="edge"><title>2029&#45;&gt;1999</title>
<path fill="none" stroke="purple" d="M2584.28,-350.903C2565.16,-346.786 2543.77,-342.679 2524,-340 2248.16,-302.625 1921.22,-290.148 1747.98,-286.017"/>
<polygon fill="purple" stroke="purple" points="1747.89,-282.514 1737.81,-285.78 1747.72,-289.512 1747.89,-282.514"/>
</g>
<!-- 2052 -->
<g id="node22" class="node"><title>2052</title>
<ellipse fill="none" stroke="black" cx="2855" cy="-366" rx="81.4863" ry="18"/>
<text text-anchor="middle" x="2855" y="-362.3" font-family="Times,serif" font-size="14.00">2052 &quot;dbus&#45;launch&quot;</text>
</g>
<!-- 2052&#45;&gt;1999 -->
<g id="edge15" class="edge"><title>2052&#45;&gt;1999</title>
<path fill="none" stroke="purple" d="M2810.01,-350.831C2794.9,-346.631 2777.86,-342.493 2762,-340 2569.6,-309.753 1999.19,-292.869 1747.57,-286.714"/>
<polygon fill="purple" stroke="purple" points="1747.38,-283.209 1737.29,-286.464 1747.21,-290.206 1747.38,-283.209"/>
</g>
<!-- 2053 -->
<g id="node23" class="node"><title>2053</title>
<ellipse fill="none" stroke="black" cx="721" cy="-283" rx="86.3847" ry="18"/>
<text text-anchor="middle" x="721" y="-279.3" font-family="Times,serif" font-size="14.00">2053 &quot;dbus&#45;daemon&quot;</text>
</g>
<!-- 2053&#45;&gt;302 -->
<g id="edge17" class="edge"><title>2053&#45;&gt;302</title>
<path fill="none" stroke="purple" d="M807.715,-283C850.279,-283 892.843,-283 935.407,-283"/>
<polygon fill="purple" stroke="purple" points="935.644,-286.5 945.644,-283 935.644,-279.5 935.644,-286.5"/>
</g>
<!-- 2053&#45;&gt;2053 -->
<g id="edge16" class="edge"><title>2053&#45;&gt;2053</title>
<path fill="none" stroke="purple" d="M771.509,-297.639C799.587,-300.372 825.442,-295.492 825.442,-283 825.442,-272.021 805.469,-266.921 781.57,-267.703"/>
<polygon fill="purple" stroke="purple" points="781.259,-264.216 771.509,-268.361 781.716,-271.201 781.259,-264.216"/>
</g>
<!-- 2072 -->
<g id="node24" class="node"><title>2072</title>
<ellipse fill="none" stroke="black" cx="380" cy="-366" rx="168.17" ry="18"/>
<text text-anchor="middle" x="380" y="-362.3" font-family="Times,serif" font-size="14.00">2072 &quot;gnome&#45;session&#45;b&quot;,&quot;gnome&#45;session&#45;c&quot;</text>
</g>
<!-- 2072&#45;&gt;1999 -->
<g id="edge18" class="edge"><title>2072&#45;&gt;1999</title>
<path fill="none" stroke="purple" d="M461.842,-350.207C489.988,-346.133 521.743,-342.225 551,-340 808.06,-320.452 873.604,-346.46 1131,-332 1268.7,-324.264 1427.63,-306.98 1527.52,-295.404"/>
<polygon fill="purple" stroke="purple" points="1528.07,-298.864 1537.6,-294.233 1527.26,-291.911 1528.07,-298.864"/>
</g>
<!-- 2072&#45;&gt;1999 -->
<g id="edge19" class="edge"><title>2072&#45;&gt;1999</title>
<path fill="none" stroke="purple" d="M473.4,-350.997C503.88,-346.644 537.855,-342.368 569,-340 826.06,-320.452 891.604,-346.46 1149,-332 1282.68,-324.49 1436.36,-307.982 1532.39,-296.433"/>
<polygon fill="purple" stroke="purple" points="1532.86,-299.902 1542.37,-295.226 1532.02,-292.953 1532.86,-299.902"/>
</g>
<!-- 2072&#45;&gt;2053 -->
<g id="edge20" class="edge"><title>2072&#45;&gt;2053</title>
<path fill="none" stroke="purple" d="M445.748,-349.382C506.522,-334.946 596.287,-313.624 656.621,-299.292"/>
<polygon fill="purple" stroke="purple" points="657.493,-302.683 666.413,-296.966 655.875,-295.872 657.493,-302.683"/>
</g>
<!-- 2115 -->
<g id="node28" class="node"><title>2115</title>
<ellipse fill="none" stroke="black" cx="909" cy="-117" rx="149.473" ry="18"/>
<text text-anchor="middle" x="909" y="-113.3" font-family="Times,serif" font-size="14.00">2115 &quot;at&#45;spi&#45;bus&#45;laun&quot;,&quot;dbus&#45;daemon&quot;</text>
</g>
<!-- 2072&#45;&gt;2115 -->
<g id="edge21" class="edge"><title>2072&#45;&gt;2115</title>
<path fill="none" stroke="purple" d="M401.443,-348.022C449.211,-311.009 569.153,-222.493 683,-174 725.176,-156.035 774.336,-142.997 816.016,-134.047"/>
<polygon fill="purple" stroke="purple" points="816.822,-137.454 825.889,-131.972 815.383,-130.603 816.822,-137.454"/>
</g>
<!-- 2093 -->
<g id="node25" class="node"><title>2093</title>
<ellipse fill="none" stroke="black" cx="102" cy="-366" rx="86.3847" ry="18"/>
<text text-anchor="middle" x="102" y="-362.3" font-family="Times,serif" font-size="14.00">2093 &quot;dbus&#45;daemon&quot;</text>
</g>
<!-- 2093&#45;&gt;2053 -->
<g id="edge22" class="edge"><title>2093&#45;&gt;2053</title>
<path fill="none" stroke="purple" d="M150.801,-351.091C166.416,-347.034 183.843,-342.914 200,-340 349.243,-313.085 525.035,-297.477 629.519,-289.864"/>
<polygon fill="purple" stroke="purple" points="629.994,-293.339 639.716,-289.129 629.491,-286.357 629.994,-293.339"/>
</g>
<!-- 2094&#45;&gt;1999 -->
<g id="edge23" class="edge"><title>2094&#45;&gt;1999</title>
<path fill="none" stroke="purple" d="M1117.25,-350.8C1140.36,-347.167 1165.62,-343.344 1189,-340 1304.72,-323.448 1438.32,-306.275 1527.09,-295.384"/>
<polygon fill="purple" stroke="purple" points="1527.65,-298.842 1537.15,-294.153 1526.8,-291.894 1527.65,-298.842"/>
</g>
<!-- 2094&#45;&gt;1999 -->
<g id="edge24" class="edge"><title>2094&#45;&gt;1999</title>
<path fill="none" stroke="purple" d="M1128.69,-351.709C1154.11,-347.811 1181.66,-343.625 1207,-340 1318.92,-323.991 1447.57,-307.402 1532.52,-296.477"/>
<polygon fill="purple" stroke="purple" points="1533.19,-299.92 1542.66,-295.173 1532.3,-292.977 1533.19,-299.92"/>
</g>
<!-- 2107 -->
<g id="node27" class="node"><title>2107</title>
<ellipse fill="none" stroke="black" cx="721" cy="-366" rx="148.674" ry="18"/>
<text text-anchor="middle" x="721" y="-362.3" font-family="Times,serif" font-size="14.00">2107 &quot;at&#45;spi&#45;bus&#45;laun&quot;,&quot;dconf worker&quot;</text>
</g>
<!-- 2107&#45;&gt;2053 -->
<g id="edge25" class="edge"><title>2107&#45;&gt;2053</title>
<path fill="none" stroke="purple" d="M721,-347.822C721,-337.19 721,-323.306 721,-311.204"/>
<polygon fill="purple" stroke="purple" points="724.5,-311.153 721,-301.153 717.5,-311.153 724.5,-311.153"/>
</g>
<!-- 2115&#45;&gt;2115 -->
<g id="edge26" class="edge"><title>2115&#45;&gt;2115</title>
<path fill="none" stroke="purple" d="M993.885,-131.857C1037.38,-134.084 1076.49,-129.132 1076.49,-117 1076.49,-105.816 1043.25,-100.734 1003.98,-101.753"/>
<polygon fill="purple" stroke="purple" points="1003.74,-98.2593 993.885,-102.143 1004.01,-105.254 1003.74,-98.2593"/>
</g>
<!-- 2124 -->
<g id="node29" class="node"><title>2124</title>
<ellipse fill="none" stroke="black" cx="781" cy="-200" rx="86.3847" ry="18"/>
<text text-anchor="middle" x="781" y="-196.3" font-family="Times,serif" font-size="14.00">2124 &quot;dbus&#45;daemon&quot;</text>
</g>
<!-- 2124&#45;&gt;2115 -->
<g id="edge27" class="edge"><title>2124&#45;&gt;2115</title>
<path fill="none" stroke="purple" d="M806.595,-182.803C825.96,-170.549 852.769,-153.584 874.099,-140.086"/>
<polygon fill="purple" stroke="purple" points="875.991,-143.031 882.569,-134.726 872.247,-137.116 875.991,-143.031"/>
</g>
<!-- 2125&#45;&gt;2053 -->
<g id="edge28" class="edge"><title>2125&#45;&gt;2053</title>
<path fill="none" stroke="purple" d="M988.209,-217.051C957.143,-226.965 915.94,-239.551 879,-249 850.952,-256.174 819.81,-262.933 792.639,-268.442"/>
<polygon fill="purple" stroke="purple" points="791.937,-265.013 782.822,-270.414 793.315,-271.876 791.937,-265.013"/>
</g>
<!-- 2125&#45;&gt;2115 -->
<g id="edge29" class="edge"><title>2125&#45;&gt;2115</title>
<path fill="none" stroke="purple" d="M1010.48,-182.217C991.256,-170.053 965.07,-153.482 944.113,-140.22"/>
<polygon fill="purple" stroke="purple" points="945.809,-137.152 935.488,-134.762 942.066,-143.067 945.809,-137.152"/>
</g>
<!-- 2138 -->
<g id="node31" class="node"><title>2138</title>
<ellipse fill="none" stroke="black" cx="3058" cy="-366" rx="98.2828" ry="18"/>
<text text-anchor="middle" x="3058" y="-362.3" font-family="Times,serif" font-size="14.00">2138 &quot;gnome&#45;session&#45;c&quot;</text>
</g>
<!-- 2138&#45;&gt;1999 -->
<g id="edge30" class="edge"><title>2138&#45;&gt;1999</title>
<path fill="none" stroke="purple" d="M3004.64,-350.83C2986.76,-346.63 2966.64,-342.491 2948,-340 2718.24,-309.282 2029.12,-292.193 1747.71,-286.336"/>
<polygon fill="purple" stroke="purple" points="1747.54,-282.831 1737.47,-286.124 1747.39,-289.83 1747.54,-282.831"/>
</g>
<!-- 2155&#45;&gt;2115 -->
<g id="edge31" class="edge"><title>2155&#45;&gt;2115</title>
<path fill="none" stroke="purple" d="M1290.88,-184.378C1209.01,-170.147 1084.93,-148.58 1000.6,-133.922"/>
<polygon fill="purple" stroke="purple" points="1000.97,-130.433 990.516,-132.169 999.769,-137.33 1000.97,-130.433"/>
</g>
<!-- 2191 -->
<g id="node33" class="node"><title>2191</title>
<ellipse fill="none" stroke="black" cx="3278" cy="-366" rx="98.2828" ry="18"/>
<text text-anchor="middle" x="3278" y="-362.3" font-family="Times,serif" font-size="14.00">2191 &quot;gnome&#45;session&#45;c&quot;</text>
</g>
<!-- 2191&#45;&gt;1999 -->
<g id="edge33" class="edge"><title>2191&#45;&gt;1999</title>
<path fill="none" stroke="purple" d="M3224.93,-350.83C3206.98,-346.603 3186.74,-342.448 3168,-340 2894.47,-304.27 2063.04,-289.785 1748.4,-285.487"/>
<polygon fill="purple" stroke="purple" points="1748.38,-281.987 1738.34,-285.351 1748.29,-288.986 1748.38,-281.987"/>
</g>
</g>
</svg>
